<?xml version="1.0" standalone="no"?>
<!DOCTYPE svg PUBLIC "-//W3C//DTD SVG 1.1//EN" "http://www.w3.org/Graphics/SVG/1.1/DTD/svg11.dtd" >
<svg>
<metadata>
Created by FontForge 20090914 at Sat Mar 16 12:41:08 2013
 By www-data
Copyright 1996 TypeMarket, (095)142-77-12, Designer: S. Shanovich
</metadata>
<defs>
<font id="HeliosExtThin" horiz-adv-x="653" >
  <font-face 
    font-family="HeliosExtThin"
    font-weight="400"
    font-stretch="normal"
    units-per-em="1000"
    panose-1="2 0 5 5 2 0 0 2 0 4"
    ascent="800"
    descent="-200"
    x-height="524"
    cap-height="726"
    bbox="-54 -256 1228 1000"
    underline-thickness="51"
    underline-position="-45"
    unicode-range="U+0020-U+2122"
  />
<missing-glyph horiz-adv-x="500" 
 />
    <glyph glyph-name=".notdef" horiz-adv-x="500" 
 />
    <glyph glyph-name="space" unicode=" " horiz-adv-x="305" 
 />
    <glyph glyph-name="space" unicode="&#xa0;" horiz-adv-x="305" 
 />
    <glyph glyph-name="exclam" unicode="!" horiz-adv-x="294" 
d="M124 51h47v-51h-47v51zM128 467v259h39v-260l-14 -287h-11z" />
    <glyph glyph-name="quotedbl" unicode="&#x22;" horiz-adv-x="258" 
d="M65 458h-14v246h14v-246zM208 458h-15v246h15v-246z" />
    <glyph glyph-name="numbersign" unicode="#" horiz-adv-x="781" 
d="M344 463h177l89 251h26l-89 -251h165l-4 -14h-166l-65 -186h175l-4 -14h-176l-88 -249h-26l89 249h-181l-89 -249h-25l88 249h-170l4 14h170l68 186h-184l5 14h182l90 251h25zM337 449l-65 -186h178l65 186h-178z" />
    <glyph glyph-name="dollar" unicode="$" horiz-adv-x="654" 
d="M80 193c4.66699 -47.333 27.165 -86.6719 67.498 -118.005s97.833 -48.333 172.5 -51v323c-46.667 5.33301 -86.334 12.833 -119.001 22.5s-59.334 21.667 -80.001 36s-35.667 31.333 -45 51s-14 41.834 -14 66.501c0 52 20.833 95 62.5 129s106.834 53 195.501 57v82h16
v-82c46 -2 85.333 -7.33301 118 -16s59.834 -20.167 81.501 -34.5s37.834 -31.166 48.501 -50.499s16.667 -40.666 18 -63.999h-34c-4.66699 38.667 -26.667 71.5 -66 98.5s-94.666 41.833 -165.999 44.5v-316c52 -6 95.5 -13.167 130.5 -21.5s63.333 -19.166 85 -32.499
s37.167 -29.666 46.5 -48.999s14 -43.333 14 -72c0 -60.667 -21.667 -107.5 -65 -140.5s-113.666 -51.833 -210.999 -56.5v-93h-16v93c-45.333 2 -84.833 8 -118.5 18s-61.834 23.333 -84.501 40s-40 36.5 -52 59.5s-19 48.5 -21 76.5h36zM319.998 689.994
c-35.333 -2 -66.666 -7.33496 -93.999 -16.002s-50.333 -20 -69 -34s-32.834 -30.167 -42.501 -48.5s-14.5 -38.166 -14.5 -59.499c0 -47.333 17.667 -82.666 53 -105.999s91 -40.333 167 -51v315zM335.998 24.9922c78.667 1.33301 138.333 16.4961 179 45.4961
s61 67.5 61 115.5c0 26.667 -4.5 48.834 -13.5 66.501s-23.333 32.334 -43 44.001s-44.667 20.834 -75 27.501s-66.5 12.334 -108.5 17.001v-316z" />
    <glyph glyph-name="ampersand" unicode="&#x26;" horiz-adv-x="754" 
d="M285 397c-64 -30.667 -111.833 -62.1689 -143.5 -94.502s-47.5 -69.833 -47.5 -112.5c0 -25.333 5.5 -49.166 16.5 -71.499s26.167 -42.166 45.5 -59.499s42.666 -31 69.999 -41s57.666 -15 90.999 -15c46.667 0 90.834 9.5 132.501 28.5s83.834 50.5 126.501 94.5z
M598 106.998c-43.333 -45.333 -87.1689 -77.8301 -131.502 -97.4971s-93.166 -29.5 -146.499 -29.5c-41.333 0 -78.5 5.16699 -111.5 15.5s-60.833 24.833 -83.5 43.5s-40 40.667 -52 66s-18 52.666 -18 81.999c0 22.667 3.66699 43.667 11 63s19.5 38 36.5 56s39 36 66 54
s60.167 36.667 99.5 56c-20 19.333 -36.667 36.833 -50 52.5s-24 30.167 -32 43.5s-13.833 26 -17.5 38s-5.5 24 -5.5 36c0 45.333 13.5 80.166 40.5 104.499s65.5 36.5 115.5 36.5c48.667 0 86.667 -12 114 -36s41 -56 41 -96c0 -17.333 -2.66699 -33.333 -8 -48
s-14.333 -29.167 -27 -43.5s-29.334 -28.833 -50.001 -43.5s-46 -30.667 -76 -48l282 -262c37.333 76.667 58 133.667 62 171h34c-1.33301 -23.333 -7.66602 -50.833 -18.999 -82.5s-29.666 -67.834 -54.999 -108.501l132 -130h-39zM293.997 434.001
c50 25.333 87.1621 50.833 111.495 76.5s36.5 53.834 36.5 84.501c0 14.667 -3.16699 28.667 -9.5 42s-15.166 25.166 -26.499 35.499s-24.666 18.5 -39.999 24.5s-31.666 9 -48.999 9s-33.666 -3 -48.999 -9s-28.666 -14.167 -39.999 -24.5s-20.333 -22.5 -27 -36.5
s-10 -29.333 -10 -46c0 -22.667 8.66699 -47.667 26 -75s43 -54.333 77 -81z" />
    <glyph glyph-name="quotesingle" unicode="'" horiz-adv-x="114" 
d="M64 458h-13v246h13v-246z" />
    <glyph glyph-name="parenleft" unicode="(" horiz-adv-x="288" 
d="M274 733c-24 -34 -46.167 -69.667 -66.5 -107s-38 -76 -53 -116s-26.667 -80.833 -35 -122.5s-12.5 -83.834 -12.5 -126.501s4.16699 -84.667 12.5 -126s20 -81.666 35 -120.999s32.667 -77.5 53 -114.5s42.5 -72.5 66.5 -106.5h-21c-62 80.667 -109 159.167 -141 235.5
s-48 153.833 -48 232.5c0 79.333 16 157.833 48 235.5s79 156.5 141 236.5h21v0z" />
    <glyph glyph-name="parenright" unicode=")" horiz-adv-x="288" 
d="M24 -204c48 68 86 141.167 114 219.5s42 160.166 42 245.499c0 42.667 -3.83301 84.834 -11.5 126.501s-18.5 82.5 -32.5 122.5s-30.833 78.667 -50.5 116s-41.5 73 -65.5 107h21c62 -80 107.833 -158.833 137.5 -236.5s44.5 -156.167 44.5 -235.5
c0 -78.667 -14.833 -156.167 -44.5 -232.5s-75.5 -154.833 -137.5 -235.5h-21z" />
    <glyph glyph-name="asterisk" unicode="*" horiz-adv-x="494" 
d="M137 460l90 121l-142 46l6 23l143 -45v148h26v-148l143 45l6 -23l-142 -46l90 -121l-23 -17l-87 122l-87 -122z" />
    <glyph glyph-name="plus" unicode="+" horiz-adv-x="847" 
d="M438 313h277v-30h-277v-279h-30v279h-276v30h276v274h30v-274z" />
    <glyph glyph-name="comma" unicode="," horiz-adv-x="306" 
d="M130 72l47 0.00195312v-124c0 -34.667 -3.5 -59.834 -10.5 -75.501s-19.167 -26.167 -36.5 -31.5v28c11.333 6.66699 18 15.167 20 25.5s3 23.166 3 38.499v67h-23v72z" />
    <glyph glyph-name="hyphen" unicode="-" horiz-adv-x="455" 
d="M59 273h337v-26h-337v26z" />
    <glyph glyph-name="period" unicode="." horiz-adv-x="306" 
d="M130 50h47v-50h-47v50z" />
    <glyph glyph-name="slash" unicode="/" horiz-adv-x="308" 
d="M0 -98l284 844h24l-285 -844h-23z" />
    <glyph glyph-name="zero" unicode="0" horiz-adv-x="654" 
d="M56 357c0 126 23 219 69 279s113.333 90 202 90s155.834 -30 201.501 -90s68.5 -153 68.5 -279s-22.833 -219 -68.5 -279s-112.834 -90 -201.501 -90s-156 30 -202 90s-69 153 -69 279zM92 357c0 -112 20 -196.667 60 -254s98.333 -86 175 -86s134.834 28.667 174.501 86
s59.5 142 59.5 254s-19.833 196.5 -59.5 253.5s-97.834 85.5 -174.501 85.5s-135 -28.5 -175 -85.5s-60 -141.5 -60 -253.5z" />
    <glyph glyph-name="one" unicode="1" horiz-adv-x="442" 
d="M290 637c-10 -18.667 -23.832 -33.1689 -41.499 -43.502s-37.167 -18 -58.5 -23s-43.333 -8 -66 -9s-43.334 -1.5 -62.001 -1.5v28h56c29.333 0 54.833 3.83301 76.5 11.5s39.5 17.834 53.5 30.501s24.5 27.334 31.5 44.001s10.5 34 10.5 52h36v-726h-36v637z" />
    <glyph glyph-name="two" unicode="2" 
d="M53 0c2 32.667 8.83203 61.333 20.499 86s28.834 49 51.501 73c15.333 16.667 40.5 35.667 75.5 57l133.5 78l92.5 51.5c26.333 14.333 46.166 28.166 59.499 41.499c21.333 19.333 36.666 39.5 45.999 60.5s14 44.833 14 71.5s-5.16699 51 -15.5 73
s-24.666 40.833 -42.999 56.5s-40.666 27.667 -66.999 36s-55.5 12.5 -87.5 12.5c-36 0 -68.333 -4.83301 -97 -14.5s-53 -23.167 -73 -40.5s-35.333 -38.166 -46 -62.499s-16 -50.833 -16 -79.5h-36c0 32 6.16699 61.667 18.5 89s30 51.166 53 71.499s51 36.333 84 48
s69.833 17.5 110.5 17.5c81.333 0 143.5 -18.667 186.5 -56s64.5 -88.333 64.5 -153c0 -29.333 -4.66699 -54.666 -14 -75.999s-23 -41 -41 -59s-40.5 -35.167 -67.5 -51.5l-94.5 -54.5l-108 -61.5c-32.667 -19 -60.667 -38 -84 -57s-42 -38.667 -56 -59
s-22 -42.833 -24 -67.5h482v-31h-522v0z" />
    <glyph glyph-name="three" unicode="3" 
d="M88 205c0 -28 5.50488 -53.502 16.5049 -76.502s26.833 -42.5 47.5 -58.5s45.834 -28.5 75.501 -37.5s62.834 -13.5 99.501 -13.5c72 0 128.167 16.167 168.5 48.5s60.5 76.833 60.5 133.5c0 23.333 -6 44.666 -18 63.999s-29.167 36 -51.5 50s-49.333 24.833 -81 32.5
s-66.834 11.5 -105.501 11.5h-27v28h27c24 0 49.5 2.83301 76.5 8.5s51.667 14.834 74 27.501s40.833 28.834 55.5 48.501s22 43.5 22 71.5c0 51.333 -17.833 89.833 -53.5 115.5s-85.834 38.5 -150.501 38.5c-30.667 0 -59 -4.33301 -85 -13s-48.333 -21 -67 -37
s-33.334 -35 -44.001 -57s-16 -46 -16 -72h-36c0 30 5.66699 57.667 17 83s27.666 47.333 48.999 66s47.5 33.167 78.5 43.5s66.167 15.5 105.5 15.5c80.667 0 140.5 -15.167 179.5 -45.5s58.5 -73.833 58.5 -130.5c0 -20.667 -4.33301 -41.5 -13 -62.5
s-21.334 -40 -38.001 -57s-36.834 -30.833 -60.501 -41.5s-50.834 -16 -81.501 -16c34.667 0 66 -4.66699 94 -14s51.5 -22 70.5 -38s33.667 -34.333 44 -55s15.5 -42.334 15.5 -65.001c0 -67.333 -22 -119.666 -66 -156.999s-111 -56 -201 -56
c-45.333 0 -85.333 5.16699 -120 15.5s-63.5 25 -86.5 44s-40.333 41.833 -52 68.5s-17.5 56.334 -17.5 89.001h36z" />
    <glyph glyph-name="four" unicode="4" 
d="M440 195h-411v28l401 503h44v-503h130v-28h-130v-195h-34v195zM440 687l-373 -464h373v464z" />
    <glyph glyph-name="five" unicode="5" horiz-adv-x="654" 
d="M104 170c4 -21.333 11.6689 -41.3301 23.002 -59.9971s26.5 -35 45.5 -49s41.5 -25 67.5 -33s55 -12 87 -12c36 0 68.833 5.83301 98.5 17.5s55.167 27.667 76.5 48s38 44 50 71s18 55.833 18 86.5c0 65.333 -21 115.833 -63 151.5s-100 53.5 -174 53.5
c-28 0 -52.5 -2.66699 -73.5 -8s-39.833 -12.333 -56.5 -21s-31.334 -18.667 -44.001 -30s-24.667 -23.333 -36 -36h-37l64 376h404v-29h-377l-54 -308c23.333 27.333 54.5 48.166 93.5 62.499s82.833 21.5 131.5 21.5c81.333 0 144.666 -20 189.999 -60s68 -96.333 68 -169
c0 -38 -6.16699 -72.667 -18.5 -104s-30.5 -58.333 -54.5 -81s-53.667 -40.167 -89 -52.5s-75.666 -18.5 -120.999 -18.5c-38.667 0 -73 4.66699 -103 14s-55.667 22.166 -77 38.499s-38.333 35.666 -51 57.999s-21.334 46.5 -26.001 72.5h38z" />
    <glyph glyph-name="six" unicode="6" 
d="M95 285c6 32 17.834 59 35.501 81s38.834 39.5 63.501 52.5s51.167 22.333 79.5 28s56.166 8.5 83.499 8.5c80.667 0 142.667 -20.667 186 -62s65 -98.666 65 -171.999c0 -74.667 -23.667 -132.167 -71 -172.5s-115.333 -60.5 -204 -60.5
c-49.333 0 -91.5 6.83301 -126.5 20.5s-63.667 35.167 -86 64.5s-38.833 66.666 -49.5 111.999s-16 100 -16 164c0 130 23.333 225.333 70 286s120.667 91 222 91c36 0 68.333 -4.16699 97 -12.5s53.167 -19.333 73.5 -33s36 -29.5 47 -47.5s17.167 -37 18.5 -57h-36
c-6.66699 36 -28 65.167 -64 87.5s-82.667 33.5 -140 33.5c-82.667 0 -145.334 -27.167 -188.001 -81.5s-64 -134.5 -64 -240.5v-90h4zM107.001 220c0 -31.333 5.66504 -59.501 16.998 -84.501s27 -46.167 47 -63.5s44 -30.833 72 -40.5s59 -14.5 93 -14.5
c35.333 0 67.5 4.83301 96.5 14.5s53.833 23.334 74.5 41.001s36.667 39.167 48 64.5s17 53.666 17 84.999s-5.33301 59.666 -16 84.999s-25.667 46.833 -45 64.5s-42.666 31.334 -69.999 41.001s-57.666 14.5 -90.999 14.5c-36.667 0 -70 -5 -100 -15s-55.5 -24 -76.5 -42
s-37.333 -39.667 -49 -65s-17.5 -53.666 -17.5 -84.999z" />
    <glyph glyph-name="seven" unicode="7" 
d="M230 0c11.333 56 26 112.833 44 170.5s40.5 115.5 67.5 173.5s59.5 116.5 97.5 175.5s82.667 118.167 134 177.5h-503v29h539v-29c-44.667 -54.667 -86.167 -110.667 -124.5 -168s-72.333 -115.5 -102 -174.5s-54.5 -118.333 -74.5 -178s-34 -118.5 -42 -176.5h-36v0z
" />
    <glyph glyph-name="eight" unicode="8" horiz-adv-x="654" 
d="M274 389c-38.667 5.33301 -70.001 13.668 -94.001 25.001s-42.5 24.666 -55.5 39.999s-21.833 32 -26.5 50s-7 36.333 -7 55c0 53.333 19.833 94.5 59.5 123.5s98.5 43.5 176.5 43.5s136.833 -14.5 176.5 -43.5s59.5 -70.167 59.5 -123.5c0 -20 -2.5 -38.833 -7.5 -56.5
s-14 -34 -27 -49s-31 -28 -54 -39s-52.167 -19.5 -87.5 -25.5c38.667 -3.33301 71.334 -11 98.001 -23s48.5 -27 65.5 -45s29.333 -38.5 37 -61.5s11.5 -47.5 11.5 -73.5c0 -64.667 -22.333 -113.834 -67 -147.501s-113 -50.5 -205 -50.5s-160.333 16.833 -205 50.5
s-67 82.834 -67 147.501c0 26 3.83301 50.5 11.5 73.5s20.167 43.5 37.5 61.5s39.833 33 67.5 45s61.5 19.667 101.5 23h1zM126.999 549.002c0 -46.667 17.667 -82.667 53 -108s84.333 -38 147 -38s111.667 12.667 147 38s53 61.333 53 108c0 48 -17.5 84.667 -52.5 110
s-84.167 38 -147.5 38s-112.5 -12.667 -147.5 -38s-52.5 -62 -52.5 -110zM90.999 194.002c0 -56.667 21.168 -100.334 63.501 -131.001s100.166 -46 173.499 -46s130.833 15.333 172.5 46s62.5 74.334 62.5 131.001c0 27.333 -5.66699 52.166 -17 74.499
s-27.333 41.333 -48 57s-45.5 27.834 -74.5 36.501s-61.167 13 -96.5 13s-67.5 -4.33301 -96.5 -13s-53.833 -20.834 -74.5 -36.501s-36.667 -34.667 -48 -57s-17 -47.166 -17 -74.499z" />
    <glyph glyph-name="nine" unicode="9" 
d="M559 429c-8 -36.667 -21.667 -66.167 -41 -88.5s-41.333 -39.5 -66 -51.5s-50.667 -20 -78 -24s-53 -6 -77 -6c-80.667 0 -142.667 20.667 -186 62s-65 98.666 -65 171.999c0 74.667 23.667 132.167 71 172.5s115.333 60.5 204 60.5c48.667 0 90.667 -6.83301 126 -20.5
s64.166 -35.167 86.499 -64.5s38.833 -66.666 49.5 -111.999s16 -100 16 -164c0 -130 -23.5 -225.333 -70.5 -286s-120.833 -91 -221.5 -91c-36 0 -68.333 4.16699 -97 12.5s-53.167 19.333 -73.5 33s-36 29.5 -47 47.5s-17.167 37 -18.5 57h36
c6.66699 -36 28 -65.167 64 -87.5s82.667 -33.5 140 -33.5c82.667 0 145.334 27.167 188.001 81.5s64 134.5 64 240.5v90h-4zM547 494c0 30.667 -5.66504 58.6689 -16.998 84.002s-27 46.666 -47 63.999s-44 30.833 -72 40.5s-59 14.5 -93 14.5
c-35.333 0 -67.5 -4.83301 -96.5 -14.5s-53.833 -23.334 -74.5 -41.001s-36.667 -39.167 -48 -64.5s-17 -53.666 -17 -84.999s5.33301 -59.666 16 -84.999s25.667 -46.833 45 -64.5s42.666 -31.334 69.999 -41.001s57.666 -14.5 90.999 -14.5c36.667 0 70 5 100 15
s55.5 24 76.5 42s37.333 39.667 49 65s17.5 53.666 17.5 84.999z" />
    <glyph glyph-name="colon" unicode=":" horiz-adv-x="294" 
d="M124 488h47v-51h-47v51zM124 51h47v-51h-47v51z" />
    <glyph glyph-name="semicolon" unicode=";" horiz-adv-x="294" 
d="M124 52l47 0.00195312v-104c0 -34.667 -3.5 -59.834 -10.5 -75.501s-19.167 -26.167 -36.5 -31.5v28c11.333 6.66699 18 15.167 20 25.5s3 23.166 3 38.499v67h-23v52zM124 488.002h47v-52h-47v52z" />
    <glyph glyph-name="less" unicode="&#x3c;" horiz-adv-x="848" 
d="M136 305l573 231v-33l-538 -209l538 -209v-33l-573 232v21z" />
    <glyph glyph-name="equal" unicode="=" horiz-adv-x="847" 
d="M715 387h-583v24h583v-24zM715 193h-583v24h583v-24z" />
    <glyph glyph-name="greater" unicode="&#x3e;" horiz-adv-x="848" 
d="M135 52v33l538 209l-538 209v33l573 -231v-21z" />
    <glyph glyph-name="question" unicode="?" horiz-adv-x="586" 
d="M355 309c-22.667 -17.333 -40.498 -35.0029 -53.498 -53.0029s-19.5 -42 -19.5 -72h-41v12c0 16.667 1.66699 31 5 43s8.66602 23 15.999 33s16.5 19.833 27.5 29.5s24.167 20.5 39.5 32.5c20 16 39.5 30.833 58.5 44.5s35.833 28.167 50.5 43.5s26.334 32.333 35.001 51
s13 40.667 13 66c0 26 -5 50 -15 72s-24.167 40.833 -42.5 56.5s-40.333 28 -66 37s-54.167 13.5 -85.5 13.5s-60 -5.16699 -86 -15.5s-48.333 -24.166 -67 -41.499s-33.167 -37.666 -43.5 -60.999s-15.5 -48.333 -15.5 -75h-41
c1.33301 70.667 23.666 125.334 66.999 164.001s104.333 58 183 58c82.667 0 145.5 -18.667 188.5 -56s64.5 -88.333 64.5 -153c0 -21.333 -2.33301 -40.833 -7 -58.5s-12.667 -34.167 -24 -49.5c-16.667 -24 -37.334 -44.833 -62.001 -62.5zM238.002 51.9971h48v-52h-48v52
z" />
    <glyph glyph-name="at" unicode="@" horiz-adv-x="1024" 
d="M647 355c-7.33301 33.333 -21.168 58.833 -41.501 76.5s-46.833 26.5 -79.5 26.5c-26 0 -50.167 -6.16699 -72.5 -18.5s-41.5 -29.333 -57.5 -51s-28.667 -47.167 -38 -76.5s-14 -61.333 -14 -96c0 -40 9.83301 -71 29.5 -93s46.834 -33 81.501 -33
c38 0 71.5 12.333 100.5 37s48.833 57.667 59.5 99zM598.998 153c-16 -30 -36.832 -53.168 -62.499 -69.501s-52.834 -24.5 -81.501 -24.5c-52 0 -91.167 13.667 -117.5 41s-39.5 67 -39.5 119c0 38.667 6.16699 74.5 18.5 107.5s28.833 61.667 49.5 86
s44.834 43.333 72.501 57s57.167 20.5 88.5 20.5c65.333 0 108 -29.333 128 -88l31 68h33l-69 -273l-8.5 -36c-2.33301 -10 -3.5 -17.667 -3.5 -23c0 -15.333 5.33301 -27.166 16 -35.499s26.334 -12.5 47.001 -12.5c22.667 0 45.667 5.5 69 16.5s44.666 26.5 63.999 46.5
c26 27.333 46.667 61 62 101s23 82.667 23 128c0 44 -8.66699 84.5 -26 121.5s-41.833 68.667 -73.5 95s-70 47 -115 62s-95.167 22.5 -150.5 22.5c-111.333 0 -205 -31.333 -281 -94c-52.667 -42 -92.5 -91.833 -119.5 -149.5s-40.5 -121.5 -40.5 -191.5
c0 -54 9.5 -103.167 28.5 -147.5s46.167 -82.166 81.5 -113.499s78 -55.666 128 -72.999s105.667 -26 167 -26c54.667 0 109.167 8.16699 163.5 24.5s104.5 40.166 150.5 71.499l11 -18c-96.667 -71.333 -203.334 -107 -320.001 -107c-126 0 -228 30 -306 90
c-99.333 75.333 -149 177.666 -149 306.999c0 54 8.33301 104.333 25 151s41 89.667 73 129c47.333 58 104 102 170 132s140 45 222 45c55.333 0 106.5 -7.5 153.5 -22.5s87.167 -35.167 120.5 -60.5c85.333 -66 128 -149 128 -249c0 -56.667 -10.333 -107.667 -31 -153
s-50 -83 -88 -113c-23.333 -18 -47.833 -31.667 -73.5 -41s-51.5 -14 -77.5 -14c-62 0 -93 23.333 -93 70c0 3.33301 0.166992 7 0.5 11s0.833008 8 1.5 12z" />
    <glyph glyph-name="A" unicode="A" horiz-adv-x="772" 
d="M386 696l-198 -427h396zM408 726l344 -726h-44l-109 237h-426l-109 -237h-44l344 726h44z" />
    <glyph glyph-name="B" unicode="B" horiz-adv-x="751" 
d="M436 32c69.333 0 123.167 13 161.5 39s57.5 67.667 57.5 125c0 34 -8.5 62.167 -25.5 84.5s-38.667 40 -65 53s-56 22.167 -89 27.5s-65.5 8 -97.5 8h-248v-337h306zM382.001 396c34.667 0 66.833 2.5 96.5 7.5s55.5 13.5 77.5 25.5s39.167 27.667 51.5 47
s18.5 43.333 18.5 72c0 53.333 -17.167 91.5 -51.5 114.5s-82.833 34.5 -145.5 34.5h-299v-301h252zM92 726h352c78 0 134.667 -14 170 -42s53 -71.333 53 -130c0 -18.667 -2.5 -37.334 -7.5 -56.001s-14 -36 -27 -52s-30.5 -29.667 -52.5 -41s-50.333 -18.666 -85 -21.999
c66 -7.33301 116 -27.833 150 -61.5s51 -73.5 51 -119.5c0 -71.333 -19.833 -122.833 -59.5 -154.5s-104.167 -47.5 -193.5 -47.5h-351v726z" />
    <glyph glyph-name="C" unicode="C" horiz-adv-x="823" 
d="M731 517c-7.33301 29.333 -19.5 56.168 -36.5 80.501s-38.167 45.166 -63.5 62.499s-54.5 30.666 -87.5 39.999s-68.833 14 -107.5 14c-52 0 -99.167 -8.16699 -141.5 -24.5s-78.5 -39.833 -108.5 -70.5s-53.167 -67.5 -69.5 -110.5s-24.5 -91.5 -24.5 -145.5
c0 -53.333 8 -101.666 24 -144.999s38.5 -80.166 67.5 -110.499s63.667 -53.833 104 -70.5s84.833 -25 133.5 -25c40 0 77.833 5.83301 113.5 17.5s67.334 28 95.001 49s51 45.667 70 74s32.167 59.5 39.5 93.5h44c-7.33301 -38.667 -21 -74.334 -41 -107.001
s-45.5 -60.667 -76.5 -84s-67 -41.666 -108 -54.999s-85.833 -20 -134.5 -20c-57.333 0 -108.833 8.83301 -154.5 26.5s-84.5 43 -116.5 76s-56.5 73.167 -73.5 120.5s-25.5 100.666 -25.5 159.999c0 60 8.5 113.667 25.5 161s41.833 87.5 74.5 120.5
s72.834 58.167 120.501 75.5s102.167 26 163.5 26c48.667 0 92.5 -5.66699 131.5 -17s72.667 -27 101 -47s51.166 -44 68.499 -72s28.666 -59 33.999 -93h-41v0z" />
    <glyph glyph-name="D" unicode="D" horiz-adv-x="825" 
d="M130 699v-668.001h222c56 0 105.5 3.16699 148.5 9.5s81.5 20.833 115.5 43.5c40 26 69 62.833 87 110.5s27 105.5 27 173.5c0 134.667 -38 228 -114 280c-35.333 22.667 -76 36.834 -122 42.501s-99 8.5 -159 8.5h-205zM352 725.999c34 0 65.5 -0.663086 94.5 -1.99609
s56 -4.33301 81 -9s48 -11.334 69 -20.001s40.833 -20.334 59.5 -35.001c41.333 -31.333 71 -70.833 89 -118.5s27 -107.167 27 -178.5s-9 -130.833 -27 -178.5s-47.667 -87.167 -89 -118.5c-18.667 -14.667 -38.5 -26.334 -59.5 -35.001s-44 -15.334 -69 -20.001
s-52 -7.66699 -81 -9s-60.5 -2 -94.5 -2h-261v726h261z" />
    <glyph glyph-name="E" unicode="E" horiz-adv-x="694" 
d="M91 726h551v-29h-513v-312h474v-29h-474v-324h513v-32h-551v726z" />
    <glyph glyph-name="F" unicode="F" horiz-adv-x="655" 
d="M91 726h530v-29h-492v-309h439v-32h-439v-356h-38v726z" />
    <glyph glyph-name="G" unicode="G" horiz-adv-x="847" 
d="M746 0l-7.99902 159.001c-15.333 -36.667 -36.333 -66.5 -63 -89.5s-55 -41.167 -85 -54.5s-59.5 -22.5 -88.5 -27.5s-53.833 -7.5 -74.5 -7.5c-58 0 -110 8.83301 -156 26.5s-85.167 43 -117.5 76s-57.166 73.167 -74.499 120.5s-26 100.666 -26 159.999
c0 60 8.5 113.667 25.5 161s41.833 87.5 74.5 120.5s72.834 58.167 120.501 75.5s102.167 26 163.5 26c47.333 0 90.333 -5.66699 129 -17s72 -27 100 -47s50.167 -43.5 66.5 -70.5s26.166 -56.167 29.499 -87.5h-47c-11.333 57.333 -41.5 103.333 -90.5 138
s-112.833 52 -191.5 52c-51.333 0 -98 -8.16699 -140 -24.5s-77.833 -39.833 -107.5 -70.5s-52.5 -67.5 -68.5 -110.5s-24 -91.5 -24 -145.5c0 -53.333 8.16699 -101.833 24.5 -145.5s39.166 -80.834 68.499 -111.501s64.5 -54.167 105.5 -70.5s86.5 -24.5 136.5 -24.5
s94.333 8.33301 133 25s71.167 37.667 97.5 63s46.166 53.333 59.499 84s20 60.334 20 89.001v55h-243v29h281v-356h-30z" />
    <glyph glyph-name="H" unicode="H" horiz-adv-x="797" 
d="M89 726h40v-322h538v322h40v-726h-40v375h-538v-375h-40v726z" />
    <glyph glyph-name="I" unicode="I" horiz-adv-x="232" 
d="M97 726h38v-726h-38v726z" />
    <glyph glyph-name="J" unicode="J" horiz-adv-x="591" 
d="M279 -20c-155.333 0 -232.999 75.666 -232.999 226.999v8h38v-14c0 -61.333 16.167 -107.833 48.5 -139.5s78.166 -47.5 137.499 -47.5c69.333 0 118.166 18.333 146.499 55s42.5 92.334 42.5 167.001v490h38v-474c0 -44 -1.83301 -81 -5.5 -111s-14.5 -57 -32.5 -81
c-19.333 -25.333 -44.166 -45 -74.499 -59s-65.5 -21 -105.5 -21z" />
    <glyph glyph-name="K" unicode="K" horiz-adv-x="722" 
d="M92 726h38v-443l501 443h46l-335 -298l346 -428h-47l-328 404l-183 -161v-243h-38v726z" />
    <glyph glyph-name="L" unicode="L" horiz-adv-x="642" 
d="M91 726h38v-694h483v-32h-521v726z" />
    <glyph glyph-name="M" unicode="M" horiz-adv-x="1030" 
d="M131 656v-656h-38v726h44l378 -690l378 690h44v-726h-38v655l-361 -655h-44z" />
    <glyph glyph-name="N" unicode="N" horiz-adv-x="854" 
d="M764 726v-726h-45l-590 676v-676h-39v726h45l590 -679v679h39z" />
    <glyph glyph-name="O" unicode="O" horiz-adv-x="877" 
d="M438 8c52.667 0 100.334 8.33301 143.001 25s79 40.5 109 71.5s53 68.333 69 112s24 92.5 24 146.5s-8 102.667 -24 146s-39 80.166 -69 110.499s-66.333 53.666 -109 69.999s-90.334 24.5 -143.001 24.5s-100.334 -8.16699 -143.001 -24.5s-79 -39.666 -109 -69.999
s-53 -67.166 -69 -110.499s-24 -92 -24 -146s8 -102.833 24 -146.5s39 -81 69 -112s66.333 -54.833 109 -71.5s90.334 -25 143.001 -25zM822 363c0 -60 -8.5 -113.667 -25.5 -161s-41.833 -87.5 -74.5 -120.5s-72.834 -58.167 -120.501 -75.5s-102.167 -26 -163.5 -26
s-115.833 8.66699 -163.5 26s-87.834 42.5 -120.501 75.5s-57.5 73.167 -74.5 120.5s-25.5 101 -25.5 161s8.5 113.667 25.5 161s41.833 87.5 74.5 120.5s72.834 58.167 120.501 75.5s102.167 26 163.5 26s115.833 -8.66699 163.5 -26s87.834 -42.5 120.501 -75.5
s57.5 -73.167 74.5 -120.5s25.5 -101 25.5 -161z" />
    <glyph glyph-name="P" unicode="P" horiz-adv-x="694" 
d="M92 726h293c92 0 158.833 -16.167 200.5 -48.5s62.5 -84.5 62.5 -156.5s-21 -124.167 -63 -156.5s-108.667 -48.5 -200 -48.5h-255v-316h-38v726zM371 347c38 0 71.667 2.66895 101 8.00195s54 14.666 74 27.999s35 31.333 45 54s15 51 15 85s-5 62.167 -15 84.5
s-25 40.166 -45 53.499s-44.667 22.833 -74 28.5s-63 8.5 -101 8.5h-241v-350h241z" />
    <glyph glyph-name="Q" unicode="Q" horiz-adv-x="877" 
d="M532 140l24.001 27.9961l109 -94c42 40.667 72.167 84.834 90.5 132.501s27.5 100.167 27.5 157.5c0 54 -8 102.667 -24 146s-39 80 -69 110s-66.333 53.167 -109 69.5s-90.334 24.5 -143.001 24.5s-100.167 -8.16699 -142.5 -24.5s-78.333 -39.666 -108 -69.999
s-52.5 -67.166 -68.5 -110.499s-24 -92 -24 -146s8 -102.667 24 -146s38.833 -80.166 68.5 -110.499s65.667 -53.666 108 -69.999s89.833 -24.5 142.5 -24.5c38 0 72 3.66699 102 11s60.667 20.666 92 39.999zM662.001 32.9961
c-37.333 -19.333 -73.666 -32.999 -108.999 -40.999s-73.666 -12 -114.999 -12c-61.333 0 -115.833 8.66699 -163.5 26s-87.834 42.5 -120.501 75.5s-57.5 73.333 -74.5 121s-25.5 101.5 -25.5 161.5s8.5 113.667 25.5 161s41.833 87.333 74.5 120s72.834 57.667 120.501 75
s102.167 26 163.5 26s115.833 -8.66699 163.5 -26s88 -42.333 121 -75s58.167 -72.667 75.5 -120s26 -101 26 -161c0 -31.333 -2.5 -60.833 -7.5 -88.5s-12.833 -54.167 -23.5 -79.5s-24.834 -49.833 -42.501 -73.5s-38.834 -46.834 -63.501 -69.501l116 -93l-21 -24z" />
    <glyph glyph-name="R" unicode="R" horiz-adv-x="768" 
d="M90 726l348.997 0.000976562c89.333 0 154.833 -15.5 196.5 -46.5s62.5 -77.833 62.5 -140.5c0 -23.333 -3 -46 -9 -68s-15.5 -41.833 -28.5 -59.5s-29.333 -32.5 -49 -44.5s-43.167 -19.333 -70.5 -22c18 -1.33301 35.333 -6 52 -14s31.5 -18.5 44.5 -31.5
s23.5 -28.5 31.5 -46.5s12 -38 12 -60c0 -49.333 0.833008 -89.333 2.5 -120s7.5 -55 17.5 -73h-44c-8.66699 22 -13.667 48.333 -15 79s-2 68.667 -2 114c0 22.667 -5.16699 42.667 -15.5 60s-24.666 31.666 -42.999 42.999s-40.166 19.833 -65.499 25.5
s-52.666 8.5 -81.999 8.5h-305v-330h-39v726zM128.997 697.001v-337h302c74.667 0 131 12.833 169 38.5s57 69.167 57 130.5c0 32 -5.16699 58.667 -15.5 80s-25.5 38.5 -45.5 51.5s-44.667 22.333 -74 28s-63 8.5 -101 8.5h-292z" />
    <glyph glyph-name="S" unicode="S" horiz-adv-x="727" 
d="M102 211c0 -27.333 6.66895 -53.002 20.002 -77.002s32 -45 56 -63s52.333 -32.333 85 -43s68.334 -16 107.001 -16s73.667 4.5 105 13.5s58 21.5 80 37.5s38.833 35 50.5 57s17.5 46 17.5 72s-4.66699 47.5 -14 64.5s-23 31.167 -41 42.5s-40 20.5 -66 27.5
s-55.667 13.5 -89 19.5l-163 29c-58.667 10 -100.834 28.5 -126.501 55.5s-38.5 65.5 -38.5 115.5c0 30 6 57.167 18 81.5s29.667 45.333 53 63s52.166 31.334 86.499 41.001s73.833 14.5 118.5 14.5s84.167 -4.83301 118.5 -14.5s63.166 -23 86.499 -40
s41.166 -37.333 53.499 -61s18.833 -49.5 19.5 -77.5h-39c-4 48.667 -26.667 87.667 -68 117s-98.333 44 -171 44c-36 0 -68.333 -4 -97 -12s-53.334 -19.167 -74.001 -33.5s-36.5 -31.666 -47.5 -51.999s-16.5 -42.833 -16.5 -67.5c0 -24 4 -44 12 -60
s20.167 -29.333 36.5 -40s36.833 -19.5 61.5 -26.5s53.334 -13.833 86.001 -20.5l157 -31c32.667 -6.66699 60.834 -14.667 84.501 -24s42.834 -21 57.501 -35s25.5 -30.5 32.5 -49.5s10.5 -41.5 10.5 -67.5c0 -68 -24.5 -120.833 -73.5 -158.5s-122.167 -56.5 -219.5 -56.5
c-98.667 0 -174.334 20.5 -227.001 61.5s-80 97.5 -82 169.5h40z" />
    <glyph glyph-name="T" unicode="T" horiz-adv-x="638" 
d="M300 697h-298v29h634v-29h-298v-697h-38v697z" />
    <glyph glyph-name="U" unicode="U" horiz-adv-x="813" 
d="M129 726v-449.998c0 -88 22.667 -154 68 -198s115 -66 209 -66s163.833 22.167 209.5 66.5s68.5 110.166 68.5 197.499v450l39 1v-471c0 -90.667 -26.333 -159.334 -79 -206.001s-132 -70 -238 -70c-107.333 0 -186.833 23.333 -238.5 70s-77.5 116.667 -77.5 210v466h39
z" />
    <glyph glyph-name="V" unicode="V" horiz-adv-x="758" 
d="M17 726h44l316 -694l319 694h45l-342 -726h-44z" />
    <glyph glyph-name="W" unicode="W" horiz-adv-x="1150" 
d="M573 676l-228 -676h-44l-272 726h44l250 -694l228 694h44l228 -694l253 694h44l-275 -726h-44z" />
    <glyph glyph-name="X" unicode="X" horiz-adv-x="702" 
d="M332 370l-278 356h47l252 -328l257 328h47l-278 -357l292 -369h-50l-266 340l-264 -340h-53z" />
    <glyph glyph-name="Y" unicode="Y" horiz-adv-x="727" 
d="M344 319l-310 407h49l280 -384l284 384h45l-310 -407v-319h-38v319z" />
    <glyph glyph-name="Z" unicode="Z" horiz-adv-x="704" 
d="M34 46l593 651h-564v29h606v-42l-597 -652h597v-32h-635v46z" />
    <glyph glyph-name="bracketleft" unicode="[" horiz-adv-x="288" 
d="M79 720h180v-24h-148v-871h149v-24h-181v919z" />
    <glyph glyph-name="backslash" unicode="\" horiz-adv-x="258" 
d="M-3 746h21l287 -844h-20z" />
    <glyph glyph-name="bracketright" unicode="]" horiz-adv-x="288" 
d="M28 -199v24h149v871h-148v24h180v-919h-181z" />
    <glyph glyph-name="asciicircum" unicode="^" horiz-adv-x="1026" 
d="M776 468h-29l-235 241l-236 -241h-29l234 270h62z" />
    <glyph glyph-name="underscore" unicode="_" horiz-adv-x="494" 
d="M494 -256h-494v14h494v-14z" />
    <glyph glyph-name="grave" unicode="`" horiz-adv-x="493" 
d="M162 739h44l67 -114h-22z" />
    <glyph glyph-name="a" unicode="a" 
d="M517 312c-12.667 -11.333 -26.499 -19.832 -41.499 -25.499s-31.5 -9.83398 -49.5 -12.501s-37.333 -4.83398 -58 -6.50098s-43 -4.5 -67 -8.5c-31.333 -4.66699 -59.333 -9.5 -84 -14.5s-45.834 -11.833 -63.501 -20.5s-31.167 -20.167 -40.5 -34.5
s-14 -33.166 -14 -56.499c0 -17.333 4 -33.333 12 -48s19.167 -27.5 33.5 -38.5s31.5 -19.5 51.5 -25.5s42.333 -9 67 -9c36 0 69.5 4.83301 100.5 14.5s57.833 23.167 80.5 40.5s40.5 38 53.5 62s19.5 50.667 19.5 80v103zM616.001 6.00098
c-2.66699 -0.666992 -8.16797 -1.83398 -16.501 -3.50098s-17.166 -2.5 -26.499 -2.5c-10.667 0 -19.5 1 -26.5 3s-12.667 6.83301 -17 14.5s-7.5 19 -9.5 34s-3 35.167 -3 60.5c-12.667 -24 -28.667 -44 -48 -60s-40.5 -28.667 -63.5 -38s-47.167 -16 -72.5 -20
s-50.666 -6 -75.999 -6c-66.667 0 -115.667 12.5 -147 37.5s-47 61.5 -47 109.5c0 22.667 4 42.334 12 59.001s21 31.667 39 45s42.833 23.166 74.5 29.499s70.5 12.5 116.5 18.5c34 4.66699 64.167 8.33398 90.5 11.001s48.5 7.16699 66.5 13.5s31.667 15.833 41 28.5
s14 31.334 14 56.001c0 38 -16.333 66.5 -49 85.5s-79.334 28.5 -140.001 28.5c-67.333 0 -118.333 -11.5 -153 -34.5s-52 -54.5 -52 -94.5h-35c-0.666992 50 19.5 88.667 60.5 116s102.5 41 184.5 41c50 0 90.167 -4.83301 120.5 -14.5s54.5 -25.167 72.5 -46.5
c13.333 -16.667 21.333 -34.5 24 -53.5s4 -42.833 4 -71.5v-250c0 -9.33301 0.166992 -18.333 0.5 -27s1.83301 -16.334 4.5 -23.001s7.16699 -12 13.5 -16s15.5 -6 27.5 -6c2.66699 0 5.5 0.5 8.5 1.5l7.5 2.5v-28z" />
    <glyph glyph-name="b" unicode="b" horiz-adv-x="682" 
d="M81 726l34.9961 -0.000976562v-336c14.667 30.667 31.334 55.5 50.001 74.5s38.5 34 59.5 45s42.833 18.5 65.5 22.5s45.334 6 68.001 6c42.667 0 81.167 -6.5 115.5 -19.5s63.666 -31.5 87.999 -55.5s43 -52.833 56 -86.5s19.5 -71.167 19.5 -112.5
c0 -42 -6.5 -80 -19.5 -114s-31.667 -63 -56 -87s-53.666 -42.5 -87.999 -55.5s-72.833 -19.5 -115.5 -19.5c-23.333 0 -46.5 2.33301 -69.5 7s-45.167 12.834 -66.5 24.501s-41.166 27.167 -59.499 46.5s-34.166 44 -47.499 74v-140h-35v726zM115.996 263.999
c0 -36.667 5.83301 -70.167 17.5 -100.5s28.167 -56.333 49.5 -78s46.833 -38.5 76.5 -50.5s62.5 -18 98.5 -18s68.833 6 98.5 18s55.334 28.833 77.001 50.5s38.334 47.667 50.001 78s17.5 63.833 17.5 100.5c0 36 -5.83301 69 -17.5 99s-28.167 56 -49.5 78
s-46.833 39 -76.5 51s-62.5 18 -98.5 18s-68.833 -6 -98.5 -18s-55.334 -28.833 -77.001 -50.5s-38.334 -47.5 -50.001 -77.5s-17.5 -63.333 -17.5 -100z" />
    <glyph glyph-name="c" unicode="c" horiz-adv-x="612" 
d="M581 168c-3.33301 -25.333 -11.833 -48.834 -25.5 -70.501s-31.5 -40.667 -53.5 -57s-48 -29.166 -78 -38.499s-62.333 -14 -97 -14c-43.333 0 -82.333 6.5 -117 19.5s-64.334 31.5 -89.001 55.5s-43.5 53.167 -56.5 87.5s-19.5 72.833 -19.5 115.5
s6.5 80.834 19.5 114.501s31.833 62.167 56.5 85.5s54.334 41.166 89.001 53.499s73.667 18.5 117 18.5c34 0 65.5 -4 94.5 -12s54.333 -18.833 76 -32.5s39.334 -30 53.001 -49s22.167 -39.5 25.5 -61.5h-40c-13.333 40.667 -38.666 72 -75.999 94s-82.333 33 -135 33
c-35.333 0 -67.833 -5.66699 -97.5 -17s-55.334 -27.5 -77.001 -48.5s-38.667 -46.667 -51 -77s-18.5 -64.166 -18.5 -101.499s6 -71.333 18 -102s28.833 -57 50.5 -79s47.667 -39 78 -51s63.5 -18 99.5 -18c27.333 0 53.166 4 77.499 12s46 18.833 65 32.5s35 29.667 48 48
s21.5 38.166 25.5 59.499h38z" />
    <glyph glyph-name="d" unicode="d" horiz-adv-x="682" 
d="M601 0l-33.998 0.00195312v140c-10.667 -31.333 -25 -56.833 -43 -76.5s-38 -35.167 -60 -46.5s-45.333 -19 -70 -23s-48.334 -6 -71.001 -6c-42.667 0 -81.167 6.5 -115.5 19.5s-63.5 31.5 -87.5 55.5s-42.5 53 -55.5 87s-19.5 72 -19.5 114
c0 41.333 6.5 78.833 19.5 112.5s31.5 62.5 55.5 86.5s53.167 42.5 87.5 55.5s72.833 19.5 115.5 19.5c22.667 0 45.667 -2.33301 69 -7s45.833 -12.834 67.5 -24.501s41.667 -26.834 60 -45.501s34.166 -42 47.499 -70v336h34v-727zM567.002 264.002
c0 36.667 -5.83301 70.167 -17.5 100.5s-28.334 56.333 -50.001 78s-47.334 38.5 -77.001 50.5s-62.5 18 -98.5 18s-68.833 -6.16699 -98.5 -18.5s-55.334 -29.333 -77.001 -51s-38.334 -47.667 -50.001 -78s-17.5 -63.5 -17.5 -99.5c0 -36.667 5.83301 -70.167 17.5 -100.5
s28.334 -56.333 50.001 -78s47.334 -38.5 77.001 -50.5s62.5 -18 98.5 -18s68.833 6 98.5 18s55.334 28.833 77.001 50.5s38.334 47.667 50.001 78s17.5 63.833 17.5 100.5z" />
    <glyph glyph-name="e" unicode="e" horiz-adv-x="649" 
d="M580 141c-5.33301 -22 -15.165 -42.3311 -29.498 -60.998s-32.333 -34.834 -54 -48.501s-46.834 -24.334 -75.501 -32.001s-60 -11.5 -94 -11.5c-43.333 0 -82.333 6.33301 -117 19s-64.167 31 -88.5 55s-43 52.833 -56 86.5s-19.5 71.5 -19.5 113.5s6.5 80 19.5 114
s31.833 63 56.5 87s54.167 42.5 88.5 55.5s73.166 19.5 116.499 19.5c42.667 0 81.167 -6.66699 115.5 -20s63.666 -32 87.999 -56s43 -53 56 -87s19.5 -72 19.5 -114h-524c2.66699 -42 10.334 -78.333 23.001 -109s29.667 -56 51 -76s46.333 -34.833 75 -44.5
s60.667 -14.5 96 -14.5c25.333 0 49.333 3 72 9s43 14.5 61 25.5s33.5 24 46.5 39s22.5 31.833 28.5 50.5h45zM566.001 289.002c0 36.667 -6.5 68.6689 -19.5 96.002s-30.5 50.333 -52.5 69s-47.333 32.667 -76 42s-59 14 -91 14c-32.667 0 -63.167 -4.83301 -91.5 -14.5
s-53.333 -23.834 -75 -42.501s-39.5 -41.834 -53.5 -69.501s-22.333 -59.167 -25 -94.5h484z" />
    <glyph glyph-name="f" unicode="f" horiz-adv-x="280" 
d="M113 496l-98.001 -0.00195312v28h98v65c0 26.667 1.33301 48.834 4 66.501s7.66699 31.667 15 42s17.333 17.666 30 21.999s29 6.5 49 6.5c11.333 0 22.833 -0.833008 34.5 -2.5s21.5 -3.5 29.5 -5.5v-28c-9.33301 2.66699 -19.5 4.5 -30.5 5.5s-22.167 1.5 -33.5 1.5
c-14 0 -25.333 -2.33301 -34 -7s-15.167 -11.167 -19.5 -19.5s-7.16602 -18.666 -8.49902 -30.999s-2 -26.166 -2 -41.499v-74h128v-28h-128v-496h-34v496z" />
    <glyph glyph-name="g" unicode="g" horiz-adv-x="682" 
d="M569 262c0 36.667 -5.83301 70.333 -17.5 101s-28.334 56.834 -50.001 78.501s-47.334 38.5 -77.001 50.5s-62.5 18 -98.5 18s-68.833 -6 -98.5 -18s-55.334 -29 -77.001 -51s-38.334 -48.167 -50.001 -78.5s-17.5 -63.833 -17.5 -100.5c0 -36 5.83301 -69 17.5 -99
s28.334 -55.833 50.001 -77.5s47.334 -38.5 77.001 -50.5s62.5 -18 98.5 -18s68.833 6 98.5 18s55.334 28.667 77.001 50s38.334 47.166 50.001 77.499s17.5 63.5 17.5 99.5zM603 22.999c0 -19.333 -0.5 -36.665 -1.5 -51.998s-3.5 -29.5 -7.5 -42.5
s-9.83301 -25.167 -17.5 -36.5s-17.834 -22.333 -30.501 -33c-26 -20.667 -56.667 -35.834 -92 -45.501s-77.333 -14.5 -126 -14.5c-38 0 -71.333 3.33301 -100 10s-53 15.667 -73 27s-35.333 24.5 -46 39.5s-16.667 31.167 -18 48.5h39
c4.66699 -29.333 24.334 -52.833 59.001 -70.5s80.667 -26.5 138 -26.5c84.667 0 146.167 15 184.5 45s57.5 78 57.5 144v120c-10 -28 -24 -51.333 -42 -70s-38.333 -33.834 -61 -45.501s-46.167 -20 -70.5 -25s-47.833 -7.5 -70.5 -7.5c-42.667 0 -81.167 6.5 -115.5 19.5
s-63.5 31.5 -87.5 55.5s-42.5 52.833 -55.5 86.5s-19.5 71.167 -19.5 112.5c0 42 6.5 80 19.5 114s31.5 63 55.5 87s53.167 42.5 87.5 55.5s72.833 19.5 115.5 19.5c22 0 44.5 -1.83301 67.5 -5.5s45.167 -10.834 66.5 -21.501s41.5 -25.667 60.5 -45
s35.5 -44.666 49.5 -75.999v134h34v-501z" />
    <glyph glyph-name="h" unicode="h" horiz-adv-x="641" 
d="M77 726h34v-322c19.333 42 48.333 74.833 87 98.5s90 35.5 154 35.5c28 0 54.833 -3.83301 80.5 -11.5s48.167 -19.334 67.5 -35.001s34.833 -35.667 46.5 -60s17.5 -53.5 17.5 -87.5v-344h-34v296c0 70 -14.167 123.167 -42.5 159.5s-74.5 54.5 -138.5 54.5
c-28 0 -56.167 -3.66699 -84.5 -11s-53.833 -20 -76.5 -38s-41.167 -42.167 -55.5 -72.5s-21.5 -68.166 -21.5 -113.499v-275h-34v726z" />
    <glyph glyph-name="i" unicode="i" horiz-adv-x="203" 
d="M84 524h34v-524h-34v524zM118 659h-34v67h34v-67z" />
    <glyph glyph-name="j" unicode="j" horiz-adv-x="200" 
d="M125 -86c0 -22.667 -1.33203 -41.666 -3.99902 -56.999s-7.66699 -27.833 -15 -37.5s-17.833 -16.5 -31.5 -20.5s-31.5 -6 -53.5 -6c-12.667 0 -24 0.833008 -34 2.5s-17.333 3.16699 -22 4.5l1 29c7.33301 -2.66699 15 -4.5 23 -5.5s15.667 -1.83301 23 -2.5
c19.333 0 34.166 2.66699 44.499 8s18 12.833 23 22.5s8 21.167 9 34.5s1.5 27.666 1.5 42.999v589h35v-604zM125.001 652.001h-34v67h34v-67z" />
    <glyph glyph-name="k" unicode="k" horiz-adv-x="590" 
d="M82 726h34v-487l352 285h45l-228 -185l284 -339h-47l-267 318l-139 -115v-203h-34v726z" />
    <glyph glyph-name="l" unicode="l" horiz-adv-x="203" 
d="M84 726h34v-726h-34v726z" />
    <glyph glyph-name="m" unicode="m" horiz-adv-x="1084" 
d="M78 524l33.999 0.000976562v-128c19.333 48 50.5 83.667 93.5 107s96.833 35 161.5 35c25.333 0 47.5 -2.33301 66.5 -7s35.667 -12.5 50 -23.5s26.833 -25.667 37.5 -44s20.334 -40.833 29.001 -67.5c19.333 48 50.333 83.667 93 107s96.334 35 161.001 35
c71.333 0 123.166 -14.833 155.499 -44.5s48.5 -78.167 48.5 -145.5v-348h-34v300c0 34.667 -3 65.167 -9 91.5s-15.833 48.333 -29.5 66s-31.834 30.834 -54.501 39.501s-50.667 13 -84 13s-64.333 -5 -93 -15s-53.667 -24 -75 -42s-38 -39.667 -50 -65s-18 -53 -18 -83
v-305h-34v300c0 70.667 -15.167 123.334 -45.5 158.001s-78.833 52 -145.5 52c-30 0 -58.667 -5.33301 -86 -16s-51.166 -25.334 -71.499 -44.001s-36.5 -40.334 -48.5 -65.001s-18 -51.334 -18 -80.001v-305h-34v524z" />
    <glyph glyph-name="n" unicode="n" horiz-adv-x="641" 
d="M77 524h34.0029v-130c4.66699 18 13.667 35.667 27 53s30.166 32.833 50.499 46.5s44.333 24.5 72 32.5s58.167 12 91.5 12c26 0 51.667 -3 77 -9s48 -16.5 68 -31.5s36.167 -35 48.5 -60s18.5 -56.167 18.5 -93.5v-344h-34v331c0 26.667 -3.16699 51 -9.5 73
s-16.5 40.833 -30.5 56.5s-32.167 27.834 -54.5 36.501s-49.5 13 -81.5 13c-26 0 -53.333 -3.5 -82 -10.5s-54.834 -19.167 -78.501 -36.5s-43.334 -40.333 -59.001 -69s-23.5 -64.334 -23.5 -107.001v-287h-34v524z" />
    <glyph glyph-name="o" unicode="o" horiz-adv-x="654" 
d="M608 260c0.666992 -73.333 -17.335 -133.666 -54.002 -180.999c-24.667 -32 -56.167 -56.167 -94.5 -72.5s-82.5 -24.5 -132.5 -24.5c-48 0 -90.667 7.66699 -128 23s-68.666 37.666 -93.999 66.999c-40 49.333 -60 112 -60 188c0 42.667 6.66699 80.834 20 114.501
s32.166 62.167 56.499 85.5s53.833 41.166 88.5 53.499s73.667 18.5 117 18.5c42.667 0 81.334 -6.16699 116.001 -18.5s64.334 -30.166 89.001 -53.499s43.5 -51.833 56.5 -85.5s19.5 -71.834 19.5 -114.501zM571.998 260c0 37.333 -6 71.166 -18 101.499
s-28.667 56 -50 77s-47.166 37.167 -77.499 48.5s-63.5 17 -99.5 17c-36.667 0 -70 -5.66699 -100 -17s-55.833 -27.666 -77.5 -48.999s-38.5 -47 -50.5 -77s-18 -63.667 -18 -101s6 -71.333 18 -102s28.833 -57 50.5 -79s47.5 -39 77.5 -51s63.333 -18 100 -18
c36 0 69.167 6 99.5 18s56.166 29 77.499 51s38 48.333 50 79s18 64.667 18 102z" />
    <glyph glyph-name="p" unicode="p" horiz-adv-x="682" 
d="M116 -211l-34 -0.00195312v725h34v-139c12.667 30 28.167 54.833 46.5 74.5s38.166 35.334 59.499 47.001s43.833 19.834 67.5 24.501s47.167 7 70.5 7c42.667 0 81.167 -6.66699 115.5 -20s63.5 -32 87.5 -56s42.5 -53 55.5 -87s19.5 -71.667 19.5 -113
s-6.5 -78.833 -19.5 -112.5s-31.5 -62.5 -55.5 -86.5s-53.167 -42.5 -87.5 -55.5s-72.833 -19.5 -115.5 -19.5c-22.667 0 -46 2.5 -70 7.5s-47 13.167 -69 24.5s-42.167 26.333 -60.5 45s-33.166 42 -44.499 70v-336zM602 251.998c0 36.667 -5.83301 70.1689 -17.5 100.502
s-28.334 56.5 -50.001 78.5s-47.334 39 -77.001 51s-62.5 18 -98.5 18s-68.833 -6 -98.5 -18s-55.334 -28.833 -77.001 -50.5s-38.334 -47.834 -50.001 -78.501s-17.5 -64.334 -17.5 -101.001c0 -36 5.83301 -69.167 17.5 -99.5s28.334 -56.333 50.001 -78
s47.334 -38.5 77.001 -50.5s62.5 -18 98.5 -18s68.833 6 98.5 18s55.334 29 77.001 51s38.334 48 50.001 78s17.5 63 17.5 99z" />
    <glyph glyph-name="q" unicode="q" horiz-adv-x="682" 
d="M567 135c-11.333 -28 -26.166 -51.3311 -44.499 -69.998s-38.5 -33.667 -60.5 -45s-45 -19.5 -69 -24.5s-47.333 -7.5 -70 -7.5c-42.667 0 -81.167 6.5 -115.5 19.5s-63.5 31.5 -87.5 55.5s-42.5 52.833 -55.5 86.5s-19.5 71.167 -19.5 112.5s6.5 79 19.5 113
s31.5 63 55.5 87s53.167 42.667 87.5 56s72.833 20 115.5 20c23.333 0 46.666 -2.33301 69.999 -7s45.833 -12.834 67.5 -24.501s41.667 -27.334 60 -47.001s33.833 -44.5 46.5 -74.5v139h34v-725h-34v336zM81 262.002c0 -36 5.83301 -69.002 17.5 -99.002
s28.334 -56 50.001 -78s47.334 -39 77.001 -51s62.5 -18 98.5 -18s68.833 6 98.5 18s55.334 28.833 77.001 50.5s38.334 47.667 50.001 78s17.5 63.5 17.5 99.5c0 36.667 -5.83301 70.334 -17.5 101.001s-28.334 56.834 -50.001 78.501s-47.334 38.5 -77.001 50.5
s-62.5 18 -98.5 18s-68.833 -6 -98.5 -18s-55.334 -29 -77.001 -51s-38.334 -48.167 -50.001 -78.5s-17.5 -63.833 -17.5 -100.5z" />
    <glyph glyph-name="r" unicode="r" horiz-adv-x="358" 
d="M79 0l0.00195312 524.002h34v-139c8 27.333 18.167 50.666 30.5 69.999s26.166 35.166 41.499 47.499s31.833 21.333 49.5 27s35.5 8.5 53.5 8.5c13.333 0 27.333 -1 42 -3s25 -4.66699 31 -8v-33c-6.66699 4 -15.834 7.66699 -27.501 11s-28.5 5 -50.5 5
c-25.333 0 -48.333 -7.33301 -69 -22s-38.5 -33.167 -53.5 -55.5s-26.667 -47 -35 -74s-12.5 -52.5 -12.5 -76.5v-282h-34z" />
    <glyph glyph-name="s" unicode="s" horiz-adv-x="563" 
d="M68 135c4.66699 -38.667 25.668 -69.5039 63.001 -92.5039s87.333 -34.5 150 -34.5c66.667 0 119 10.833 157 32.5s57 52.5 57 92.5c0 31.333 -10.833 55.333 -32.5 72s-51.5 28 -89.5 34l-163 24c-30 4 -55.5 9.33301 -76.5 16s-38 15.334 -51 26.001
s-22.5 23.5 -28.5 38.5s-9 32.833 -9 53.5c0 44 19 78.833 57 104.5s96.333 38.5 175 38.5c38 0 71.667 -3.66699 101 -11s53.833 -17.166 73.5 -29.499s34.5 -27 44.5 -44s15.333 -35.167 16 -54.5h-39c-5.33301 34.667 -26 62.334 -62 83.001s-84.333 31 -145 31
c-56.667 0 -101.334 -10.5 -134.001 -31.5s-49 -48.5 -49 -82.5c0 -35.333 13.333 -60.666 40 -75.999s62 -26 106 -32l144 -22c29.333 -4 54.166 -9.33301 74.499 -16s36.833 -15.167 49.5 -25.5s21.834 -22.833 27.501 -37.5s8.5 -32 8.5 -52
c0 -53.333 -20.833 -93.333 -62.5 -120s-107.167 -40 -196.5 -40c-78.667 0 -138 14.333 -178 43s-61.667 66 -65 112h37z" />
    <glyph glyph-name="t" unicode="t" horiz-adv-x="280" 
d="M145 129c0 -16 0.668945 -30.835 2.00195 -44.502s4.5 -25.5 9.5 -35.5s12.5 -17.833 22.5 -23.5s23.667 -8.5 41 -8.5c11.333 0 23.333 2.33301 36 7c6 2 12 4.33301 18 7v-31c-9.33301 -3.33301 -20.5 -6.16602 -33.5 -8.49902s-26.167 -3.5 -39.5 -3.5
c-18 0 -32.833 2.33301 -44.5 7s-20.834 12.334 -27.501 23.001s-11.334 24.5 -14.001 41.5s-4 37.5 -4 61.5v375h-98v29h98v172h34v-172h128v-29h-128v-367v0z" />
    <glyph glyph-name="u" unicode="u" horiz-adv-x="641" 
d="M564 0l-32.999 0.000976562v146c-5.33301 -19.333 -13.5 -36.333 -24.5 -51s-22.167 -27.667 -33.5 -39c-28 -26.667 -59.5 -44.667 -94.5 -54s-69.167 -14 -102.5 -14c-71.333 0 -122.333 15.167 -153 45.5s-46 79.166 -46 146.499v344h34v-295
c0 -36.667 2.33301 -68.334 7 -95.001s13.5 -48.667 26.5 -66s31 -30.166 54 -38.499s52.833 -12.5 89.5 -12.5c32 0 62.667 5.66699 92 17s55.166 27.5 77.499 48.5s40 46.5 53 76.5s19.5 63.667 19.5 101l-1 264h35v-524z" />
    <glyph glyph-name="v" unicode="v" horiz-adv-x="535" 
d="M44 524l222 -499l221 499h41l-242 -524h-41l-242 524h41z" />
    <glyph glyph-name="w" unicode="w" horiz-adv-x="877" 
d="M646 0h-42l-173 493l-177 -493h-42l-190 524h41l170 -499l177 499h41l175 -499l170 499h41z" />
    <glyph glyph-name="x" unicode="x" horiz-adv-x="562" 
d="M284 258l-211 -258h-49l241 281l-211 243h50l178 -220l180 220h50l-210 -245l240 -279h-49z" />
    <glyph glyph-name="y" unicode="y" horiz-adv-x="535" 
d="M250 -78l-32.502 -55c-9 -15.333 -19.167 -28 -30.5 -38s-25 -17.5 -41 -22.5s-37 -7.5 -63 -7.5c-8.66699 0 -17.167 0.666992 -25.5 2s-14.833 2.66602 -19.5 3.99902v28c4.66699 -1.33301 12.334 -2.66602 23.001 -3.99902s21 -2 31 -2c18.667 0 35 3.33301 49 10
s26.833 16.5 38.5 29.5s22.834 29.333 33.501 49s21.667 42.5 33 68.5l-248 540h42l223 -515l225 515h39l-277 -602v0z" />
    <glyph glyph-name="z" unicode="z" horiz-adv-x="558" 
d="M26 39l461 457h-434v28h463v-38l-461 -457h476v-29h-505v39z" />
    <glyph glyph-name="braceleft" unicode="{" horiz-adv-x="494" 
d="M407 690l-18.999 0.00390625c-25.333 0 -45.666 -2.33301 -60.999 -7s-27.166 -12.334 -35.499 -23.001s-14 -24.834 -17 -42.501s-4.5 -39.167 -4.5 -64.5v-120c0 -25.333 -1.16699 -47.666 -3.5 -66.999s-7 -36.333 -14 -51s-16.667 -27 -29 -37s-28.833 -18 -49.5 -24
c20.667 -6 37.167 -14 49.5 -24s22 -22.333 29 -37s11.667 -31.667 14 -51s3.5 -41.666 3.5 -66.999v-120c0 -25.333 1.5 -46.833 4.5 -64.5s8.66699 -31.834 17 -42.501s20.166 -18.334 35.499 -23.001s35.666 -7 60.999 -7h19v-34h-17c-33.333 0 -60.5 3.33301 -81.5 10
s-37.333 17.5 -49 32.5s-19.5 34.667 -23.5 59s-6 53.833 -6 88.5v118c0 26 -2.16699 48.333 -6.5 67s-11.5 33.667 -21.5 45s-23.333 19.666 -40 24.999s-37.334 8 -62.001 8c-3.33301 0 -7 -0.166992 -11 -0.5s-8 -0.5 -12 -0.5v36c4.66699 -0.666992 9.16699 -1 13.5 -1
h12.5c47.333 0 80.333 11.167 99 33.5s28 59.5 28 111.5v118c0 34.667 2 64.167 6 88.5s11.833 44.166 23.5 59.499s28 26.333 49 33s48.167 10 81.5 10h17v-35z" />
    <glyph glyph-name="bar" unicode="|" horiz-adv-x="494" 
d="M263 -245h-32v1020h32v-1020z" />
    <glyph glyph-name="braceright" unicode="}" horiz-adv-x="494" 
d="M108 727c33.333 0 60.501 -3.33691 81.501 -10.0039s37.333 -17.667 49 -33s19.5 -35.166 23.5 -59.499s6 -53.833 6 -88.5v-118c0 -52 9.33301 -89.167 28 -111.5s51.667 -33.5 99 -33.5h12.5c4.33301 0 8.83301 0.333008 13.5 1v-36c-4 0 -8 0.166992 -12 0.5
s-7.66699 0.5 -11 0.5c-24.667 0 -45.334 -2.66699 -62.001 -8s-30 -13.666 -40 -24.999s-17.167 -26.333 -21.5 -45s-6.5 -41 -6.5 -67v-118c0 -34.667 -2 -64.167 -6 -88.5s-11.833 -44 -23.5 -59s-28 -25.833 -49 -32.5s-48.167 -10 -81.5 -10h-17v34h19
c24.667 0 44.834 2.33301 60.501 7s27.667 12.334 36 23.001s14 24.834 17 42.501s4.5 39.167 4.5 64.5v120c0 25.333 1.16699 47.666 3.5 66.999s7 36.333 14 51s16.667 27 29 37s28.833 18 49.5 24c-20.667 6 -37.167 14 -49.5 24s-22 22.333 -29 37
s-11.667 31.667 -14 51s-3.5 41.666 -3.5 66.999v120c0 25.333 -1.5 46.833 -4.5 64.5s-8.66699 31.834 -17 42.501s-20.333 18.334 -36 23.001s-35.834 7 -60.501 7h-19v35h17z" />
    <glyph glyph-name="asciitilde" unicode="~" horiz-adv-x="848" 
d="M753 307c-70 -48.667 -134.334 -73.001 -193.001 -73.001c-27.333 0 -52.666 3.5 -75.999 10.5s-45.666 14.5 -66.999 22.5c-24.667 9.33301 -48.667 17.833 -72 25.5s-47 11.5 -71 11.5c-30.667 0 -61.334 -7 -92.001 -21s-64.334 -33.667 -101.001 -59v37
c34 24 66.833 42.333 98.5 55s63.167 19 94.5 19c14.667 0 29.834 -1.83301 45.501 -5.5s32.5 -8.5 50.5 -14.5c34 -11.333 66.167 -22.666 96.5 -33.999s61.5 -17 93.5 -17c30 0 60.5 6.83301 91.5 20.5s64.833 33.167 101.5 58.5v-36z" />
    <glyph glyph-name="currency" unicode="&#xa4;" horiz-adv-x="607" 
d="M172 597c38 31.333 81.332 47 129.999 47c23.333 0 46.166 -3.83301 68.499 -11.5s43.166 -19.5 62.499 -35.5l102 103l30 -30l-103 -102c15.333 -19.333 26.833 -40 34.5 -62s11.5 -44.667 11.5 -68s-3.83301 -46 -11.5 -68s-19.167 -42.667 -34.5 -62l103 -102l-30 -30
l-102 103c-19.333 -15.333 -40.166 -26.833 -62.499 -34.5s-45.166 -11.5 -68.499 -11.5c-49.333 0 -92.666 15.333 -129.999 46l-103 -103l-29 30l103 102c-15.333 19.333 -26.833 40 -34.5 62s-11.5 44.667 -11.5 68s3.83301 46 11.5 68s19.167 42.667 34.5 62l-103 102
l29 30zM302.999 603c-23.333 0 -45 -4.33301 -65 -13s-37.333 -20.5 -52 -35.5s-26.334 -32.333 -35.001 -52s-13 -40.834 -13 -63.501s4.33301 -44 13 -64s20.334 -37.5 35.001 -52.5s32 -26.833 52 -35.5s41.667 -13 65 -13c22.667 0 44.167 4.33301 64.5 13
s37.833 20.5 52.5 35.5s26.334 32.5 35.001 52.5s13 41.333 13 64s-4.33301 44 -13 64s-20.334 37.333 -35.001 52s-32.167 26.334 -52.5 35.001s-41.833 13 -64.5 13z" />
    <glyph glyph-name="brokenbar" unicode="&#xa6;" horiz-adv-x="494" 
d="M263 349h-24v371h24v-371zM263 -176h-24v356h24v-356z" />
    <glyph glyph-name="section" unicode="&#xa7;" horiz-adv-x="654" 
d="M447 115c42.667 19.333 74.667 38.667 96 58s32 43 32 71c0 58 -51 104.333 -153 139l-194 66c-88.667 -26 -133 -68 -133 -126c0 -25.333 10 -48.333 30 -69s49 -38.667 87 -54zM136 11.001v-14.998c0 -44 15.833 -78 47.5 -102s77.167 -36 136.5 -36
c60.667 0 108.834 10.667 144.501 32s53.5 51 53.5 89c0 27.333 -10.667 50.5 -32 69.5s-53 36.167 -95 51.5l-190 70c-50.667 18 -88.334 39.5 -113.001 64.5s-37 53.167 -37 84.5c0 66.667 46.333 118 139 154c-25.333 15.333 -43.666 31.666 -54.999 48.999
s-17 37.333 -17 60c0 22 5.16699 42.333 15.5 61s25 34.834 44 48.501s42 24.334 69 32.001s57.167 11.5 90.5 11.5c72.667 0 128.667 -15.333 168 -46s59 -75.334 59 -134.001h-46c0 47.333 -15.167 83.666 -45.5 108.999s-73.833 38 -130.5 38
c-54 0 -97 -11.167 -129 -33.5s-48 -50.833 -48 -85.5c0 -31.333 12.833 -56 38.5 -74s63.5 -35.667 113.5 -53l112 -40c64 -21.333 111.5 -45.5 142.5 -72.5s46.5 -58.5 46.5 -94.5c0 -32.667 -11.333 -61.5 -34 -86.5s-58 -47.5 -106 -67.5
c25.333 -13.333 46 -29.333 62 -48s24 -40.667 24 -66c0 -22 -6 -42.5 -18 -61.5s-28.5 -35.5 -49.5 -49.5s-46.333 -24.833 -76 -32.5s-61.834 -11.5 -96.501 -11.5c-74 0 -131.333 14.167 -172 42.5s-61 68.166 -61 119.499v11c0 4 0.666992 8 2 12h43z" />
    <glyph glyph-name="copyright" unicode="&#xa9;" horiz-adv-x="847" 
d="M423 715c50 0 96.668 -8.83301 140.001 -26.5s82.666 -44.167 117.999 -79.5c34 -34 60 -72.833 78 -116.5s27 -90.167 27 -139.5c0 -50 -8.83301 -96.5 -26.5 -139.5s-43.5 -81.167 -77.5 -114.5c-35.333 -35.333 -75.333 -62.333 -120 -81s-91 -28 -139 -28
s-93.833 9.16699 -137.5 27.5s-82.5 45.166 -116.5 80.499c-35.333 34 -62.166 73 -80.499 117s-27.5 90 -27.5 138s9.16699 94 27.5 138s45.166 83.667 80.499 119c34 34.667 72.333 60.834 115 78.501s89 26.5 139 26.5zM423.001 683
c-91.333 0 -168.333 -31.998 -231 -95.998c-32 -32 -56.5 -68 -73.5 -108s-25.5 -82 -25.5 -126s8.33301 -85.667 25 -125s41 -75 73 -107s67.667 -56.5 107 -73.5s81 -25.5 125 -25.5s86 8.66699 126 26s76.333 42 109 74c31.333 30 55.166 64.5 71.499 103.5
s24.5 81.5 24.5 127.5c0 45.333 -8.16699 87.666 -24.5 126.999s-40.166 74.666 -71.499 105.999c-32 32 -67.833 56.167 -107.5 72.5s-82.167 24.5 -127.5 24.5zM547.001 454.002c-7.33301 29.333 -21.6631 52.166 -42.9961 68.499s-48 24.5 -80 24.5
c-44.667 0 -79.834 -16.833 -105.501 -50.5s-38.5 -81.834 -38.5 -144.501c0 -60 13.167 -107 39.5 -141s61.166 -51 104.499 -51c34 0 62.833 9.66699 86.5 29s38.167 44.333 43.5 75h37c-2 -20 -7.66699 -38.333 -17 -55s-21.5 -31 -36.5 -43s-32.5 -21.5 -52.5 -28.5
s-41.667 -10.5 -65 -10.5c-27.333 0 -52.333 5.16699 -75 15.5s-42.167 25.333 -58.5 45s-29 43.334 -38 71.001s-13.5 58.834 -13.5 93.501c0 35.333 4.66699 67 14 95s22.5 51.833 39.5 71.5s37.167 34.667 60.5 45s49.333 15.5 78 15.5c21.333 0 41.166 -3 59.499 -9
s34.666 -14.5 48.999 -25.5s26 -24.167 35 -39.5s14.5 -32.333 16.5 -51h-40z" />
    <glyph glyph-name="guillemotleft" unicode="&#xab;" horiz-adv-x="478" 
d="M215 412v-32l-145 -121l145 -121v-32l-181 137v32zM437 412v-32l-145 -121l145 -121v-32l-181 137v32z" />
    <glyph glyph-name="logicalnot" unicode="&#xac;" horiz-adv-x="847" 
d="M723 176h-28v209h-571v26h599v-235z" />
    <glyph glyph-name="sfthyphen" unicode="&#xad;" horiz-adv-x="455" 
d="M59 273h337v-26h-337v26z" />
    <glyph glyph-name="registered" unicode="&#xae;" horiz-adv-x="847" 
d="M423 715c48.667 0 94.6689 -8.83301 138.002 -26.5s82.666 -43.5 117.999 -77.5c34 -34 59.833 -72.833 77.5 -116.5s26.5 -89.834 26.5 -138.501c0 -49.333 -8.66699 -95.166 -26 -137.499s-43 -80.166 -77 -113.499c-36 -35.333 -75.833 -62.333 -119.5 -81
s-89.5 -28 -137.5 -28s-93.5 9.16699 -136.5 27.5s-81.5 44.833 -115.5 79.5c-34.667 34 -61.167 72.667 -79.5 116s-27.5 89 -27.5 137s9.16699 93.667 27.5 137s44.833 82.666 79.5 117.999c34 34 72.167 59.833 114.5 77.5s88.166 26.5 137.499 26.5zM423.002 683
c-44.667 0 -86.5 -7.83496 -125.5 -23.502s-73.833 -39.5 -104.5 -71.5c-32 -32 -56.167 -67.833 -72.5 -107.5s-24.5 -81.167 -24.5 -124.5s8.33301 -84.666 25 -123.999s41 -74.666 73 -105.999c31.333 -32 66.5 -56.333 105.5 -73s80.167 -25 123.5 -25
s85.166 8.5 125.499 25.5s76.5 41.5 108.5 73.5c31.333 30 54.833 64.333 70.5 103s23.5 80.667 23.5 126c0 44.667 -8.16699 86.667 -24.5 126s-40.166 74.333 -71.499 105c-64 64 -141.333 96 -232 96zM435.002 570.998c58 0 100.999 -8.83203 128.999 -26.499
s42 -47.5 42 -89.5c0 -28.667 -9.16699 -52.834 -27.5 -72.501s-43.166 -31.167 -74.499 -34.5l95 -196h-52l-90 189h-128v-189h-43v419h149zM329.001 375.999h94c46 0 79.5 5.33301 100.5 16s31.5 32.667 31.5 66c0 28 -10.833 48 -32.5 60s-54.5 18 -98.5 18h-95v-160z
" />
    <glyph glyph-name="degree" unicode="&#xb0;" horiz-adv-x="311" 
d="M159 738c18 0 35.167 -3.5 51.5 -10.5s30.5 -16.5 42.5 -28.5s21.5 -26.167 28.5 -42.5s10.5 -33.833 10.5 -52.5c0 -18 -3.5 -35.167 -10.5 -51.5s-16.5 -30.5 -28.5 -42.5s-26.167 -21.5 -42.5 -28.5s-33.833 -10.5 -52.5 -10.5c-19.333 0 -37 3.33301 -53 10
s-30 16 -42 28s-21.333 26.167 -28 42.5s-10 33.833 -10 52.5s3.5 36.167 10.5 52.5s16.5 30.5 28.5 42.5s26.167 21.5 42.5 28.5s33.833 10.5 52.5 10.5zM159 713c-15.333 0 -29.498 -2.83301 -42.498 -8.5s-24.5 -13.334 -34.5 -23.001s-17.833 -21.167 -23.5 -34.5
s-8.5 -27.666 -8.5 -42.999s2.83301 -29.666 8.5 -42.999s13.5 -24.833 23.5 -34.5s21.5 -17.334 34.5 -23.001s27.167 -8.5 42.5 -8.5s29.666 2.83301 42.999 8.5s24.833 13.5 34.5 23.5s17.167 21.5 22.5 34.5s8 27.167 8 42.5c0 14.667 -2.83301 28.667 -8.5 42
s-13.334 25 -23.001 35s-21 17.833 -34 23.5s-27.167 8.5 -42.5 8.5z" />
    <glyph glyph-name="plusminus" unicode="&#xb1;" horiz-adv-x="848" 
d="M433 563v-177h276v-30h-276v-179h-30v179h-277v30h277v177h30zM709 57v-31h-583v31h583z" />
    <glyph glyph-name="mu" unicode="&#xb5;" horiz-adv-x="540" 
d="M143 511l-62.001 -288.999c-3.33301 -17.333 -6.16602 -32.833 -8.49902 -46.5s-3.5 -25.834 -3.5 -36.501c0 -44 11.5 -77.667 34.5 -101s55.5 -35 97.5 -35c44 0 84.333 19.833 121 59.5s63.334 96.5 80.001 170.5l61 278h37l-100 -441c-2 -10 -3 -19.667 -3 -29
c0 -23.333 14 -35 42 -35h9c2.66699 0 5.66699 0.333008 9 1l-6 -31c-4.66699 -1.33301 -9.33398 -2 -14.001 -2h-12c-42 0 -63 18.667 -63 56c0 4.66699 0.5 10.167 1.5 16.5l3.5 21.5c-43.333 -66.667 -102.333 -100 -177 -100c-38 0 -69.5 8.83301 -94.5 26.5
s-41.167 42.5 -48.5 74.5l-65 -294h-36l163 736h34z" />
    <glyph glyph-name="paragraph" unicode="&#xb6;" horiz-adv-x="494" 
d="M450 739v-29.001h-67v-707h-28v707h-99v-707h-28v389c-60 2.66699 -106.667 19.834 -140 51.501s-50 72.5 -50 122.5c0 25.333 4.66699 48.5 14 69.5s22.5 39.167 39.5 54.5s37.667 27.333 62 36s51.5 13 81.5 13h215z" />
    <glyph glyph-name="periodcentered" unicode="&#xb7;" horiz-adv-x="306" 
d="M117 354c0 22 12 33 36 33s36 -11 36 -33c0 -22.667 -12 -34 -36 -34s-36 11.333 -36 34z" />
    <glyph glyph-name="guillemotright" unicode="&#xbb;" horiz-adv-x="478" 
d="M436 275v-32l-181 -137v32l145 121l-145 121v32zM214 275v-32l-181 -137v32l145 121l-145 121v32z" />
    <glyph glyph-name="afii10023" unicode="&#x401;" horiz-adv-x="694" 
d="M91 726h551v-29h-512v-312h473v-30h-473v-326h512v-29h-551v726zM208 926h39v-57h-39v57zM481 926h39v-57h-39v57z" />
    <glyph glyph-name="afii10051" unicode="&#x402;" horiz-adv-x="947" 
d="M338 0l-39.002 -0.000976562v697h-297v29h661v-29h-325v-307c40 11.333 83.333 20 130 26s94 9 142 9c46 0 87.833 -5.66699 125.5 -17s69.834 -27 96.501 -47s47.167 -43.5 61.5 -70.5s21.5 -55.833 21.5 -86.5c0 -73.333 -24.167 -129 -72.5 -167
s-120.833 -57 -217.5 -57c-25.333 0 -47.833 2 -67.5 6s-37.5 8.66699 -53.5 14l10 33c13.333 -4 30.333 -8.83301 51 -14.5s40 -8.5 58 -8.5c28 0 56.833 2.83301 86.5 8.5s56.834 15.834 81.501 30.501s45 34.167 61 58.5s24 55.5 24 93.5s-9.16699 69.5 -27.5 94.5
s-41.333 44.833 -69 59.5s-57.667 25 -90 31s-62.5 9 -90.5 9c-16 0 -34.5 -0.666992 -55.5 -2s-43 -3.5 -66 -6.5s-46.5 -6.83301 -70.5 -11.5s-47 -10.667 -69 -18v-357z" />
    <glyph glyph-name="afii10052" unicode="&#x403;" horiz-adv-x="582" 
d="M92 0v726h481v-29h-443v-697h-38zM392 992h59l-113 -164h-29z" />
    <glyph glyph-name="afii10053" unicode="&#x404;" horiz-adv-x="823" 
d="M731 517c-7.33301 29.333 -19.499 56.168 -36.499 80.501s-38.167 45.166 -63.5 62.499s-54.5 30.833 -87.5 40.5s-68.833 14.5 -107.5 14.5c-46.667 0 -89.334 -6.66699 -128.001 -20s-72.667 -33.166 -102 -59.499s-53.666 -58.833 -72.999 -97.5s-32.333 -83 -39 -133
h431v-30h-433c1.33301 -57.333 10.166 -108.5 26.499 -153.5s39 -83 68 -114s63.333 -54.667 103 -71s83.5 -24.5 131.5 -24.5c40 0 77.833 5.83301 113.5 17.5s67.334 28 95.001 49s51 45.667 70 74s32.167 59.5 39.5 93.5h44c-7.33301 -38.667 -21 -74.334 -41 -107.001
s-45.5 -60.667 -76.5 -84s-67 -41.666 -108 -54.999s-85.833 -20 -134.5 -20c-57.333 0 -108.833 8.83301 -154.5 26.5s-84.5 43 -116.5 76s-56.5 73.167 -73.5 120.5s-25.5 100.666 -25.5 159.999c0 60 8.5 113.667 25.5 161s41.833 87.5 74.5 120.5
s72.834 58.167 120.501 75.5s102.167 26 163.5 26c48.667 0 92.5 -5.66699 131.5 -17s72.667 -27 101 -47s51.166 -44 68.499 -72s28.666 -59 33.999 -93h-41v0z" />
    <glyph glyph-name="afii10054" unicode="&#x405;" horiz-adv-x="727" 
d="M102 211l0.000976562 17c0 -31.333 6.33301 -60.333 19 -87s30.5 -49.5 53.5 -68.5s50.667 -33.833 83 -44.5s67.833 -16 106.5 -16s73.834 4.5 105.501 13.5s58.667 21.5 81 37.5s39.666 35 51.999 57s18.5 46 18.5 72s-4.66699 47.5 -14 64.5
s-22.833 31.167 -40.5 42.5s-39.334 20.5 -65.001 27.5s-55.167 13.5 -88.5 19.5l-163 29c-58.667 10 -100.834 28.5 -126.501 55.5s-38.5 65.5 -38.5 115.5c0 30 5.83301 57.167 17.5 81.5s29 45.333 52 63s51.5 31.334 85.5 41.001s73.333 14.5 118 14.5
s84.334 -4.83301 119.001 -14.5s63.834 -23 87.501 -40s41.834 -37.333 54.501 -61s19.334 -49.5 20.001 -77.5h-39c-2 24 -8.83301 46.167 -20.5 66.5s-27.834 37.833 -48.501 52.5s-45.334 26.167 -74.001 34.5s-61 12.5 -97 12.5s-68.333 -4.16699 -97 -12.5
s-53.334 -20 -74.001 -35s-36.5 -32.833 -47.5 -53.5s-16.5 -43.334 -16.5 -68.001c0 -24 4.66699 -44.5 14 -61.5s22.833 -31.333 40.5 -43s39.334 -21.167 65.001 -28.5s55.167 -14 88.5 -20l146 -26c66.667 -11.333 114.167 -30.5 142.5 -57.5s42.5 -66.5 42.5 -118.5
c0 -68 -24.5 -120.833 -73.5 -158.5s-122.167 -56.5 -219.5 -56.5c-98.667 0 -174.334 20.5 -227.001 61.5s-80 97.5 -82 169.5h40z" />
    <glyph glyph-name="afii10055" unicode="&#x406;" horiz-adv-x="232" 
d="M97 726h38v-726h-38v726z" />
    <glyph glyph-name="afii10056" unicode="&#x407;" horiz-adv-x="231" 
d="M97 727h38v-727h-38v727zM35 881h35v-62h-35v62zM162 881h35v-62h-35v62z" />
    <glyph glyph-name="afii10057" unicode="&#x408;" horiz-adv-x="591" 
d="M279 -20c-78.667 0 -136.999 18.666 -174.999 55.999s-57 94.333 -57 171v8h-1c0 3.33301 0.166992 4.5 0.5 3.5s0.5 -2.16699 0.5 -3.5h37v-14c0 -61.333 16.167 -108.666 48.5 -141.999s78.166 -50 137.499 -50c69.333 0 118.166 19.167 146.499 57.5
s42.5 94.833 42.5 169.5v491h38v-475c0 -44 -1.83301 -81 -5.5 -111s-14.5 -57 -32.5 -81c-19.333 -25.333 -44.166 -45 -74.499 -59s-65.5 -21 -105.5 -21z" />
    <glyph glyph-name="afii10058" unicode="&#x409;" horiz-adv-x="1274" 
d="M176 694l-0.000976562 -344c0 -68 -2.66699 -125.5 -8 -172.5s-13.5 -85.167 -24.5 -114.5s-24.833 -50.5 -41.5 -63.5s-36 -19.5 -58 -19.5c-19.333 0 -34 1.66699 -44 5l6 36c9.33301 -2.66699 15.833 -4.16699 19.5 -4.5s8.83398 -0.5 15.501 -0.5
c16.667 0 31.167 7.33301 43.5 22s22.5 37.5 30.5 68.5s13.833 70.833 17.5 119.5s5.5 107 5.5 175v325h573v-315h254c90.667 0 157.167 -16.167 199.5 -48.5s63.5 -84.5 63.5 -156.5s-21.167 -124.333 -63.5 -157s-108.833 -49 -199.5 -49h-292v694h-497zM710.999 29
l240 0.00195312c38 0 71.667 2.83301 101 8.5s54 15.167 74 28.5s35 31.333 45 54s15 51 15 85s-5 62.167 -15 84.5s-25 40.166 -45 53.499s-44.667 22.666 -74 27.999s-63 8 -101 8h-240v-350z" />
    <glyph glyph-name="afii10059" unicode="&#x40a;" horiz-adv-x="1268" 
d="M129 726v-321h538v321h38v-321h254c92.667 0 160 -15.333 202 -46s63 -82 63 -154c0 -71.333 -21.167 -123.333 -63.5 -156s-109.5 -49 -201.5 -49h-292v375h-538v-375h-40v726h40zM705 29l241 0.000976562c38.667 0 72.667 2.83301 102 8.5s53.833 15.167 73.5 28.5
s34.5 31.166 44.5 53.499s15 50.5 15 84.5c0 34.667 -5 63 -15 85s-25 39.333 -45 52s-44.667 21.5 -74 26.5s-63 7.5 -101 7.5h-241v-346z" />
    <glyph glyph-name="afii10060" unicode="&#x40b;" horiz-adv-x="947" 
d="M299 697l-297.002 -0.00195312v29h661v-29h-325v-307c40 11.333 83.333 20 130 26s94 9 142 9c32.667 0 67 -4.16699 103 -12.5s69 -22.166 99 -41.499s54.667 -45 74 -77s29 -71.667 29 -119v-175h-39v177c0 42.667 -9 78 -27 106s-40.667 50.333 -68 67
s-57.166 28.334 -89.499 35.001s-63.166 10 -92.499 10c-16 0 -34.5 -0.666992 -55.5 -2s-43 -3.5 -66 -6.5s-46.5 -6.83301 -70.5 -11.5s-47 -10.667 -69 -18v-357h-39v697z" />
    <glyph glyph-name="afii10061" unicode="&#x40c;" horiz-adv-x="722" 
d="M91 727h39v-443l501 443h46l-335 -299l346 -428h-47l-328 405l-183 -161v-244h-39v727zM431 1000h60l-114 -164h-28z" />
    <glyph glyph-name="afii10062" unicode="&#x40e;" horiz-adv-x="727" 
d="M53 726l314.001 -593.001l271 593h42l-301 -639c-11.333 -22 -23 -39.333 -35 -52s-24.167 -22.334 -36.5 -29.001s-24.5 -11.167 -36.5 -13.5s-23.667 -3.83301 -35 -4.5c-3.33301 0 -7.83301 0.166992 -13.5 0.5s-11.5 1 -17.5 2s-11.5 2 -16.5 3
s-8.5 1.83301 -10.5 2.5l8 33c5.33301 -3.33301 10.666 -5.66602 15.999 -6.99902s12 -2 20 -2c15.333 0.666992 28.5 1.83398 39.5 3.50098s20.667 4.5 29 8.5s15.833 9.5 22.5 16.5s13 16.167 19 27.5l15 26l-339 624h45zM222.001 930.999
c0 -19.333 3.49902 -35.5 10.499 -48.5s16.5 -23.5 28.5 -31.5s25.667 -13.667 41 -17s31 -5 47 -5c16.667 0 32.834 1.5 48.501 4.5s29.667 8.5 42 16.5s22.333 18.5 30 31.5s11.5 29.5 11.5 49.5h24c0 -44 -13.5 -77.333 -40.5 -100s-66.5 -34 -118.5 -34
c-48 0 -84.667 11.667 -110 35s-38 56.333 -38 99h24z" />
    <glyph glyph-name="afii10145" unicode="&#x40f;" horiz-adv-x="797" 
d="M89 726h40v-695h538v695h40v-726h-290v-189h-39v189h-289v726z" />
    <glyph glyph-name="afii10017" unicode="&#x410;" horiz-adv-x="772" 
d="M386 696l-198 -427h396zM408 726l344 -726h-44l-109 237h-426l-109 -237h-44l344 726h44z" />
    <glyph glyph-name="afii10018" unicode="&#x411;" horiz-adv-x="751" 
d="M436 32c69.333 0 123.167 13 161.5 39s57.5 67.667 57.5 125c0 34 -8.5 62.167 -25.5 84.5s-38.667 40 -65 53s-56 22.167 -89 27.5s-65.5 8 -97.5 8h-248v-337h306zM92.001 726l534 0.000976562v-29h-496v-301h252c60.667 0 111.167 -5.83301 151.5 -17.5
s72.5 -26.834 96.5 -45.501s41 -39.5 51 -62.5s15 -45.833 15 -68.5c0 -71.333 -19.833 -122.833 -59.5 -154.5s-104.167 -47.5 -193.5 -47.5h-351v726z" />
    <glyph glyph-name="afii10019" unicode="&#x412;" horiz-adv-x="751" 
d="M436 32c69.333 0 123.167 13 161.5 39s57.5 67.667 57.5 125c0 34 -8.5 62.167 -25.5 84.5s-38.667 40 -65 53s-56 22.167 -89 27.5s-65.5 8 -97.5 8h-248v-337h306zM382.001 396c34.667 0 66.833 2.5 96.5 7.5s55.5 13.5 77.5 25.5s39.167 27.667 51.5 47
s18.5 43.333 18.5 72c0 53.333 -17.167 91.5 -51.5 114.5s-82.833 34.5 -145.5 34.5h-299v-301h252zM92 726h352c78 0 134.667 -14 170 -42s53 -71.333 53 -130c0 -18.667 -2.5 -37.334 -7.5 -56.001s-14 -36 -27 -52s-30.5 -29.667 -52.5 -41s-50.333 -18.666 -85 -21.999
c66 -7.33301 116 -27.833 150 -61.5s51 -73.5 51 -119.5c0 -71.333 -19.833 -122.833 -59.5 -154.5s-104.167 -47.5 -193.5 -47.5h-351v726z" />
    <glyph glyph-name="afii10020" unicode="&#x413;" horiz-adv-x="582" 
d="M92 0v726h481v-29h-443v-697h-38z" />
    <glyph glyph-name="afii10021" unicode="&#x414;" horiz-adv-x="773" 
d="M215 697v-327c0 -37.333 -1.66699 -71 -5 -101s-8.83301 -58.167 -16.5 -84.5s-17.5 -51.833 -29.5 -76.5s-26.667 -50 -44 -76h526l-1 665h-430zM74 31c18 23.333 33.5 47.167 46.5 71.5s23.667 51 32 80s14.333 61.167 18 96.5s5.5 76 5.5 122v325h508v-694h78v-221
h-38v189h-665v-189h-38v221h53v-1z" />
    <glyph glyph-name="afii10022" unicode="&#x415;" horiz-adv-x="694" 
d="M91 726h551v-29h-513v-312h474v-30h-474v-323h513v-32h-551v726z" />
    <glyph glyph-name="afii10024" unicode="&#x416;" horiz-adv-x="1023" 
d="M497 0v243l-156 157l-284 -400h-47l302 428l-292 298h46l431 -443v443h38v-443l431 443h46l-292 -298l302 -428h-47l-284 400l-156 -157v-243h-38z" />
    <glyph glyph-name="afii10025" unicode="&#x417;" horiz-adv-x="751" 
d="M126 557c0 26.667 5.33496 51.4971 16.002 74.4971s26.834 43 48.501 60s49 30.333 82 40s71.5 14.5 115.5 14.5c41.333 0 79 -3.83301 113 -11.5s63.167 -19.167 87.5 -34.5s43.166 -34.5 56.499 -57.5s20 -50.167 20 -81.5c0 -44.667 -11.833 -82 -35.5 -112
s-64.834 -51.333 -123.501 -64c30.667 -4 57.834 -12 81.501 -24s43.5 -26.833 59.5 -44.5s28 -37.167 36 -58.5s12 -43.333 12 -66c0 -32.667 -5.66699 -62.167 -17 -88.5s-28.833 -48.666 -52.5 -66.999s-54.167 -32.333 -91.5 -42s-82 -14.5 -134 -14.5
c-44 0 -84 3.83301 -120 11.5s-66.833 19.834 -92.5 36.501s-45.5 38.167 -59.5 64.5s-21 58.5 -21 96.5h38c0 -33.333 6.16699 -61.166 18.5 -83.499s29.833 -40.5 52.5 -54.5s49.667 -24 81 -30s65.666 -9 102.999 -9c44.667 0 83.167 4.5 115.5 13.5
s58.666 21.167 78.999 36.5s35.333 33.333 45 54s14.5 42.667 14.5 66c0 58.667 -20.833 104.167 -62.5 136.5s-97.5 48.5 -167.5 48.5h-93v30h77c58.667 0 105.334 9.66699 140.001 29c23.333 12 41.833 28.333 55.5 49s20.5 47.667 20.5 81c0 28 -6.66699 52 -20 72
s-31 36.333 -53 49s-47.167 22 -75.5 28s-57.5 9 -87.5 9c-28.667 0 -56.5 -2.83301 -83.5 -8.5s-50.833 -14.667 -71.5 -27s-37.334 -28.5 -50.001 -48.5s-19 -44.333 -19 -73h-38z" />
    <glyph glyph-name="afii10026" unicode="&#x418;" horiz-adv-x="853" 
d="M722 0v676l-596 -676h-39v726h39v-668l596 668h39v-726h-39z" />
    <glyph glyph-name="afii10027" unicode="&#x419;" horiz-adv-x="853" 
d="M717 0v676l-596 -676h-39v726h39v-667l596 667h39v-726h-39zM291 932c0 -19.333 3.49902 -35.5 10.499 -48.5s16.5 -23.5 28.5 -31.5s25.667 -13.667 41 -17s31 -5 47 -5c16.667 0 32.834 1.5 48.501 4.5s29.667 8.5 42 16.5s22.333 18.5 30 31.5s11.5 29.5 11.5 49.5h24
c0 -44 -13.5 -77.333 -40.5 -100s-66.5 -34 -118.5 -34c-48 0 -84.667 11.667 -110 35s-38 56.333 -38 99h24z" />
    <glyph glyph-name="afii10028" unicode="&#x41a;" horiz-adv-x="722" 
d="M91 726h39v-443l501 443h46l-335 -298l346 -428h-47l-328 404l-183 -161v-243h-39v726z" />
    <glyph glyph-name="afii10029" unicode="&#x41b;" horiz-adv-x="802" 
d="M174 350c0 -68 -2.66602 -125.499 -7.99902 -172.499s-13.5 -85.167 -24.5 -114.5s-24.833 -50.5 -41.5 -63.5s-36 -19.5 -58 -19.5c-10 0 -18 0.5 -24 1.5s-11.333 2.16699 -16 3.5l3 31c1.33301 0 5.66602 -0.666992 12.999 -2s14.333 -2 21 -2
c16.667 0 31.167 7.5 43.5 22.5s22.5 38.167 30.5 69.5s13.833 71.666 17.5 120.999s5.5 108 5.5 176v325h573v-726h-37v697h-498v-347z" />
    <glyph glyph-name="afii10030" unicode="&#x41c;" horiz-adv-x="1030" 
d="M131 656v-656h-38v726h44l378 -690l378 690h44v-726h-38v655l-361 -655h-44z" />
    <glyph glyph-name="afii10031" unicode="&#x41d;" horiz-adv-x="797" 
d="M89 726h40v-322h538v322h40v-726h-40v375h-538v-375h-40v726z" />
    <glyph glyph-name="afii10032" unicode="&#x41e;" horiz-adv-x="877" 
d="M438 12c52.667 0 100.334 8.16699 143.001 24.5s79 39.666 109 69.999s53 67.166 69 110.499s24 92 24 146s-8 102.667 -24 146s-39 80.166 -69 110.499s-66.333 53.666 -109 69.999s-90.334 24.5 -143.001 24.5s-100.334 -8.16699 -143.001 -24.5
s-79 -39.666 -109 -69.999s-53 -67.166 -69 -110.499s-24 -92 -24 -146s8 -102.667 24 -146s39 -80.166 69 -110.499s66.333 -53.666 109 -69.999s90.334 -24.5 143.001 -24.5zM824 363c0 -60 -8.66699 -113.667 -26 -161s-42.5 -87.5 -75.5 -120.5
s-73.333 -58.167 -121 -75.5s-102.167 -26 -163.5 -26s-115.833 8.66699 -163.5 26s-87.834 42.5 -120.501 75.5s-57.5 73.167 -74.5 120.5s-25.5 101 -25.5 161s8.5 113.667 25.5 161s41.833 87.5 74.5 120.5s72.834 58.167 120.501 75.5s102.167 26 163.5 26
s115.833 -8.66699 163.5 -26s88 -42.5 121 -75.5s58.167 -73.167 75.5 -120.5s26 -101 26 -161z" />
    <glyph glyph-name="afii10033" unicode="&#x41f;" horiz-adv-x="797" 
d="M89 726h618v-726h-39v697h-540v-697h-39v726z" />
    <glyph glyph-name="afii10034" unicode="&#x420;" horiz-adv-x="694" 
d="M92 726h293c92 0 158.833 -16.167 200.5 -48.5s62.5 -84.5 62.5 -156.5s-21 -124.167 -63 -156.5s-108.667 -48.5 -200 -48.5h-255v-316h-38v726zM371 347c38 0 71.667 2.66895 101 8.00195s54 14.666 74 27.999s35 31.333 45 54s15 51 15 85s-5 62.167 -15 84.5
s-25 40.166 -45 53.499s-44.667 22.833 -74 28.5s-63 8.5 -101 8.5h-241v-350h241z" />
    <glyph glyph-name="afii10035" unicode="&#x421;" horiz-adv-x="823" 
d="M731 517c-7.33301 29.333 -19.5 56.168 -36.5 80.501s-38.167 45.166 -63.5 62.499s-54.5 30.666 -87.5 39.999s-68.833 14 -107.5 14c-52 0 -99.167 -8.16699 -141.5 -24.5s-78.5 -39.833 -108.5 -70.5s-53.167 -67.5 -69.5 -110.5s-24.5 -91.5 -24.5 -145.5
c0 -53.333 8 -101.666 24 -144.999s38.5 -80.166 67.5 -110.499s63.667 -53.833 104 -70.5s84.833 -25 133.5 -25c40 0 77.833 5.83301 113.5 17.5s67.334 28 95.001 49s51 45.667 70 74s32.167 59.5 39.5 93.5h44c-7.33301 -38.667 -21 -74.334 -41 -107.001
s-45.5 -60.667 -76.5 -84s-67 -41.666 -108 -54.999s-85.833 -20 -134.5 -20c-57.333 0 -108.833 8.83301 -154.5 26.5s-84.5 43 -116.5 76s-56.5 73.167 -73.5 120.5s-25.5 100.666 -25.5 159.999c0 60 8.5 113.667 25.5 161s41.833 87.5 74.5 120.5
s72.834 58.167 120.501 75.5s102.167 26 163.5 26c48.667 0 92.5 -5.66699 131.5 -17s72.667 -27 101 -47s51.166 -44 68.499 -72s28.666 -59 33.999 -93h-41v0z" />
    <glyph glyph-name="afii10036" unicode="&#x422;" horiz-adv-x="638" 
d="M300 697h-298v29h634v-29h-298v-697h-38v697z" />
    <glyph glyph-name="afii10037" unicode="&#x423;" horiz-adv-x="727" 
d="M53 726l314.001 -593.001l271 593h42l-301 -639c-11.333 -22 -23 -39.333 -35 -52s-24.167 -22.334 -36.5 -29.001s-24.5 -11.167 -36.5 -13.5s-23.667 -3.83301 -35 -4.5c-3.33301 0 -7.83301 0.166992 -13.5 0.5s-11.5 1 -17.5 2s-11.5 2 -16.5 3
s-8.5 1.83301 -10.5 2.5l8 33c5.33301 -3.33301 10.666 -5.66602 15.999 -6.99902s12 -2 20 -2c15.333 0.666992 28.5 1.83398 39.5 3.50098s20.667 4.5 29 8.5s15.833 9.5 22.5 16.5s13 16.167 19 27.5l15 26l-339 624h45z" />
    <glyph glyph-name="afii10038" unicode="&#x424;" horiz-adv-x="946" 
d="M60 368c0 88.667 32.666 157.834 97.999 207.501s161.333 74.5 288 74.5v76h38v-76c126.667 0 222.667 -24.833 288 -74.5s98 -118.834 98 -207.501c0 -44 -8.33301 -83.333 -25 -118s-41.167 -64.167 -73.5 -88.5s-72.666 -43 -120.999 -56s-103.833 -19.5 -166.5 -19.5
v-90h-38v90c-63.333 0 -119 6.5 -167 19.5s-88.167 31.667 -120.5 56s-56.833 53.833 -73.5 88.5s-25 74 -25 118zM483.999 115c54 0 102.331 5.33301 144.998 16s78.834 26.667 108.501 48s52.334 47.833 68.001 79.5s23.5 68.167 23.5 109.5
c0 82.667 -30.5 145.667 -91.5 189s-145.5 65 -253.5 65v-507zM445.997 622c-108 0 -192.502 -21.667 -253.502 -65s-91.5 -106.333 -91.5 -189c0 -41.333 7.83301 -77.833 23.5 -109.5s38.334 -58.167 68.001 -79.5s65.834 -37.333 108.501 -48s91 -16 145 -16v507z" />
    <glyph glyph-name="afii10039" unicode="&#x425;" horiz-adv-x="702" 
d="M332 370l-278 356h47l252 -328l257 328h47l-278 -357l292 -369h-50l-266 340l-264 -340h-53z" />
    <glyph glyph-name="afii10040" unicode="&#x426;" horiz-adv-x="798" 
d="M90 726h39v-694h538v694h38v-694h64v-221h-39v189h-640v726z" />
    <glyph glyph-name="afii10041" unicode="&#x427;" horiz-adv-x="769" 
d="M102 726l0.00195312 -176.998c0 -42.667 9 -78 27 -106s40.667 -50.333 68 -67s57.166 -28.334 89.499 -35.001s63.166 -10 92.499 -10c16 0 34.5 0.666992 55.5 2s43 3.5 66 6.5s46.5 6.83301 70.5 11.5s47 10.667 69 18v357h39v-726h-39v336
c-40 -11.333 -83.333 -20 -130 -26s-94 -9 -142 -9c-33.333 0 -67.833 4.16699 -103.5 12.5s-68.5 22.166 -98.5 41.499s-54.667 45 -74 77s-29 71.667 -29 119v175h39z" />
    <glyph glyph-name="afii10042" unicode="&#x428;" horiz-adv-x="1120" 
d="M91 0v726h38v-694h411v694h38v-694h411l1 694h37v-726h-936z" />
    <glyph glyph-name="afii10043" unicode="&#x429;" horiz-adv-x="1118" 
d="M91 726h38v-694h411v694h38v-694h410v694h39v-694h62v-221h-38v189h-960v726z" />
    <glyph glyph-name="afii10044" unicode="&#x42a;" horiz-adv-x="838" 
d="M523 32c69.333 0 123.167 13 161.5 39s57.5 67.667 57.5 125c0 34 -8.5 62.167 -25.5 84.5s-38.667 40 -65 53s-56 22.167 -89 27.5s-65.5 8 -97.5 8h-248v-337h306zM178.001 697l-208 0.000976562v29h247v-330h252c60.667 0 111.167 -5.83301 151.5 -17.5
s72.5 -26.834 96.5 -45.501s41 -39.5 51 -62.5s15 -45.833 15 -68.5c0 -71.333 -19.833 -122.833 -59.5 -154.5s-104.167 -47.5 -193.5 -47.5h-352v697z" />
    <glyph glyph-name="afii10045" unicode="&#x42b;" horiz-adv-x="961" 
d="M429 32c69.333 0 123 13 161 39s57 67.667 57 125c0 34 -8.5 62.167 -25.5 84.5s-38.667 40 -65 53s-56 22.167 -89 27.5s-65.5 8 -97.5 8h-248v-337h307zM84 726l37.999 0.000976562v-330h252c60.667 0 111.334 -5.83301 152.001 -17.5s73 -26.834 97 -45.501
s41 -39.5 51 -62.5s15 -45.833 15 -68.5c0 -71.333 -20 -122.833 -60 -154.5s-104.333 -47.5 -193 -47.5h-352v726zM828.999 726.001h37v-726h-37v726z" />
    <glyph glyph-name="afii10046" unicode="&#x42c;" horiz-adv-x="743" 
d="M428 32c69.333 0 123.167 13 161.5 39s57.5 67.667 57.5 125c0 34 -8.5 62.167 -25.5 84.5s-38.667 40 -65 53s-56 22.167 -89 27.5s-65.5 8 -97.5 8h-248v-337h306zM84.001 726l38 0.000976562v-330h252c60.667 0 111.167 -5.83301 151.5 -17.5
s72.5 -26.834 96.5 -45.501s41 -39.5 51 -62.5s15 -45.833 15 -68.5c0 -71.333 -19.833 -122.833 -59.5 -154.5s-104.167 -47.5 -193.5 -47.5h-351v726z" />
    <glyph glyph-name="afii10047" unicode="&#x42d;" horiz-adv-x="823" 
d="M746 404c-4 48 -15.002 90.998 -33.002 128.998s-41.833 70.5 -71.5 97.5s-64.5 47.667 -104.5 62s-84.333 21.5 -133 21.5c-38.667 0 -74.5 -4.66699 -107.5 -14s-62.167 -22.666 -87.5 -39.999s-46.666 -38.166 -63.999 -62.499s-29.333 -51.166 -36 -80.499h-41
c4.66699 34 15.667 65 33 93s40.333 52 69 72s62.5 35.667 101.5 47s82.833 17 131.5 17c61.333 0 115.833 -8.66699 163.5 -26s87.834 -42.5 120.501 -75.5s57.5 -73.167 74.5 -120.5s25.5 -101 25.5 -161c0 -59.333 -8.66699 -112.666 -26 -159.999s-42 -87.5 -74 -120.5
s-70.833 -58.333 -116.5 -76s-96.834 -26.5 -153.501 -26.5c-49.333 0 -94.5 6.66699 -135.5 20s-77 31.666 -108 54.999s-56.5 51.333 -76.5 84s-33.333 68.334 -40 107.001h44c7.33301 -34 20.5 -65.167 39.5 -93.5s42.333 -53 70 -74s59.334 -37.333 95.001 -49
s73.5 -17.5 113.5 -17.5c48.667 0 93.167 8.33301 133.5 25s75 40.167 104 70.5s51.5 67.166 67.5 110.499s24 91.666 24 144.999v11h-429v30h427z" />
    <glyph glyph-name="afii10048" unicode="&#x42e;" horiz-adv-x="1173" 
d="M735 12c52.667 0 100.168 8.16699 142.501 24.5s78.5 39.666 108.5 69.999s53 67.166 69 110.499s24 92 24 146s-8 102.667 -24 146s-39 80.166 -69 110.499s-66.333 53.666 -109 69.999s-90.334 24.5 -143.001 24.5s-100.334 -8.16699 -143.001 -24.5
s-79 -39.666 -109 -69.999s-53 -67.166 -69 -110.499s-24 -92 -24 -146s8 -102.667 24 -146s39 -80.166 69 -110.499s66.333 -53.666 109 -69.999s90.334 -24.5 143.001 -24.5h1zM86.001 726l38 -0.000976562v-321h224c12.667 112 52.167 196.833 118.5 254.5
s155.5 86.5 267.5 86.5c61.333 0 115.833 -8.66699 163.5 -26s88 -42.5 121 -75.5s58.167 -73.167 75.5 -120.5s26 -101 26 -161s-8.66699 -113.667 -26 -161s-42.5 -87.5 -75.5 -120.5s-73.333 -58.167 -121 -75.5s-102.167 -26 -163.5 -26
c-121.333 0 -215.5 33.833 -282.5 101.5s-101.5 165.834 -103.5 294.501h-224v-376h-38v726z" />
    <glyph glyph-name="afii10049" unicode="&#x42f;" horiz-adv-x="712" 
d="M590 0v329.999h-305l-223 -330h-44l222 333c-48 1.33301 -86.5 8.5 -115.5 21.5s-51.167 29.333 -66.5 49s-25.333 41.334 -30 65.001s-7 47.167 -7 70.5c0 62.667 20.833 109.5 62.5 140.5s107.167 46.5 196.5 46.5h349v-726h-39zM298 696.999
c-38 0 -71.667 -2.83301 -101 -8.5s-54 -15 -74 -28s-35.167 -30.167 -45.5 -51.5s-15.5 -48 -15.5 -80c0 -61.333 19 -104.833 57 -130.5s94.333 -38.5 169 -38.5h302v337h-292z" />
    <glyph glyph-name="afii10065" unicode="&#x430;" 
d="M517 312c-12.667 -11.333 -26.499 -19.832 -41.499 -25.499s-31.5 -9.83398 -49.5 -12.501s-37.333 -4.83398 -58 -6.50098s-43 -4.5 -67 -8.5c-31.333 -4.66699 -59.333 -9.5 -84 -14.5s-45.834 -11.833 -63.501 -20.5s-31.167 -20.167 -40.5 -34.5
s-14 -33.166 -14 -56.499c0 -17.333 4 -33.333 12 -48s19.167 -27.5 33.5 -38.5s31.5 -19.5 51.5 -25.5s42.333 -9 67 -9c36 0 69.5 4.83301 100.5 14.5s57.833 23.167 80.5 40.5s40.5 38 53.5 62s19.5 50.667 19.5 80v103zM616.001 6.00098
c-2.66699 -0.666992 -8.16797 -1.83398 -16.501 -3.50098s-17.166 -2.5 -26.499 -2.5c-10.667 0 -19.5 1 -26.5 3s-12.667 6.83301 -17 14.5s-7.5 19 -9.5 34s-3 35.167 -3 60.5c-12.667 -24 -28.667 -44 -48 -60s-40.5 -28.667 -63.5 -38s-47.167 -16 -72.5 -20
s-50.666 -6 -75.999 -6c-66.667 0 -115.667 12.5 -147 37.5s-47 61.5 -47 109.5c0 22.667 4 42.334 12 59.001s21 31.667 39 45s42.833 23.166 74.5 29.499s70.5 12.5 116.5 18.5c34 4.66699 64.167 8.33398 90.5 11.001s48.5 7.16699 66.5 13.5s31.667 15.833 41 28.5
s14 31.334 14 56.001c0 38 -16.333 66.5 -49 85.5s-79.334 28.5 -140.001 28.5c-67.333 0 -118.333 -11.5 -153 -34.5s-52 -54.5 -52 -94.5h-35c0 50 20.333 88.667 61 116s102 41 184 41c49.333 0 89.5 -4.83301 120.5 -14.5s55.167 -25.167 72.5 -46.5
c13.333 -16 21.333 -33.833 24 -53.5s4 -43.5 4 -71.5v-250c0 -9.33301 0.166992 -18.333 0.5 -27s1.83301 -16.334 4.5 -23.001s7.16699 -12 13.5 -16s15.5 -6 27.5 -6c2.66699 0 5.5 0.5 8.5 1.5l7.5 2.5v-28z" />
    <glyph glyph-name="afii10066" unicode="&#x431;" 
d="M92 405c30 42 64.0029 72.334 102.003 91.001s79.333 28 124 28c46 0 86 -6.66699 120 -20s62.167 -31.666 84.5 -54.999s39.166 -51.166 50.499 -83.499s17 -67.833 17 -106.5c0 -41.333 -6.16699 -78.833 -18.5 -112.5s-30.333 -62.167 -54 -85.5
s-52.334 -41.333 -86.001 -54s-71.5 -19 -113.5 -19c-46.667 0 -87 7 -121 21s-62.167 34 -84.5 60s-39 57.167 -50 93.5s-16.5 77.166 -16.5 122.499c0 46 2.5 91 7.5 135s15.833 84 32.5 120s40.667 66.667 72 92s73 42 125 50c65.333 10 114 17 146 21s48 11.667 48 23
h42c0 -4 -0.666992 -8.16699 -2 -12.5s-4.33301 -8.5 -9 -12.5s-11.667 -7.83301 -21 -11.5s-21.666 -6.83398 -36.999 -9.50098c-14 -2.66699 -33.5 -5.5 -58.5 -8.5s-51.333 -7.33301 -79 -13s-54.334 -12.667 -80.001 -21s-46.5 -19.5 -62.5 -33.5
c-30.667 -26 -53.334 -59.333 -68.001 -100s-22 -82.334 -22 -125.001zM318.003 16.001c40.667 0 75.834 6.83496 105.501 20.502s54.167 31.667 73.5 54s33.666 48.166 42.999 77.499s14 59.666 14 90.999c0 34 -4.66699 65.5 -14 94.5s-23.5 54 -42.5 75
s-43.5 37.5 -73.5 49.5s-65.333 18 -106 18c-35.333 0 -67.5 -6 -96.5 -18s-54 -28.5 -75 -49.5s-37.333 -45.5 -49 -73.5s-17.5 -57.667 -17.5 -89c0 -34 5.33301 -66 16 -96s26.167 -56.5 46.5 -79.5s45.333 -41.167 75 -54.5s63.167 -20 100.5 -20z" />
    <glyph glyph-name="afii10067" unicode="&#x432;" horiz-adv-x="584" 
d="M316 281c20 0 40.1689 2.5 60.502 7.5s38.666 12 54.999 21s29.666 20 39.999 33s15.5 27.833 15.5 44.5c0 42.667 -12.167 71.5 -36.5 86.5s-62.5 22.5 -114.5 22.5h-223v-215h203zM79.002 524l284 0.00292969c58 0 99.167 -10.333 123.5 -31s36.5 -52.667 36.5 -96
c0 -34.667 -11 -62.5 -33 -83.5s-54 -35.5 -96 -43.5c28 -3.33301 51.333 -9 70 -17s33.667 -17.667 45 -29s19.5 -24 24.5 -38s7.5 -28.667 7.5 -44c0 -24.667 -3 -45.834 -9 -63.501s-16 -32.334 -30 -44.001s-32.333 -20.334 -55 -26.001s-51 -8.5 -85 -8.5h-283v524z
M113.002 29.0029l238 0.000976562c55.333 0 94.833 8.66699 118.5 26s35.5 46 35.5 86c0 19.333 -4.66699 36.166 -14 50.499s-22.5 26.333 -39.5 36s-37 17 -60 22s-48.167 7.5 -75.5 7.5h-203v-228z" />
    <glyph glyph-name="afii10068" unicode="&#x433;" horiz-adv-x="536" 
d="M76 524h446v-28h-411v-496h-35v524z" />
    <glyph glyph-name="afii10069" unicode="&#x434;" horiz-adv-x="619" 
d="M509 28v468h-333v-193c0 -30 -1 -57 -3 -81s-5.83301 -46.5 -11.5 -67.5s-13.5 -41.667 -23.5 -62s-22.667 -41.833 -38 -64.5h409zM66 29c16.667 20.667 30 40.999 40 60.999s17.667 42 23 66s8.83301 50.833 10.5 80.5s2.5 64.834 2.5 105.501v182h401v-496h62v-198
h-34v170h-517v-170h-34v198h46v1z" />
    <glyph glyph-name="afii10070" unicode="&#x435;" horiz-adv-x="649" 
d="M580 142c-5.33301 -21.333 -14.501 -41.167 -27.501 -59.5s-30 -34.5 -51 -48.5s-46 -25 -75 -33s-62.167 -12 -99.5 -12c-43.333 0 -82.333 6.33301 -117 19s-64.167 31 -88.5 55s-43 52.833 -56 86.5s-19.5 71.5 -19.5 113.5s6.5 80 19.5 114s31.833 63 56.5 87
s54.167 42.5 88.5 55.5s73.166 19.5 116.499 19.5c42.667 0 81.167 -6.5 115.5 -19.5s63.666 -31.5 87.999 -55.5s43 -52.833 56 -86.5s19.5 -71.5 19.5 -113.5h-524c5.33301 -84 29.833 -146 73.5 -186s100.834 -60 171.501 -60c60.667 0 109.834 11.833 147.501 35.5
s60.834 53.167 69.501 88.5h36zM565.999 287.999c0 36.667 -6.5 68.8311 -19.5 96.498s-30.5 50.834 -52.5 69.501s-47.333 32.834 -76 42.501s-59 14.5 -91 14.5c-32.667 0 -63.167 -5 -91.5 -15s-53.333 -24.5 -75 -43.5s-39.5 -42.333 -53.5 -70
s-22.333 -59.167 -25 -94.5h484z" />
    <glyph glyph-name="afii10072" unicode="&#x436;" horiz-adv-x="905" 
d="M468 524v-277l341 277h51l-243 -196l279 -328h-45l-262 306l-121 -99v-207h-34v207l-121 99l-262 -306h-45l279 328l-243 196h51l341 -277v277h34z" />
    <glyph glyph-name="afii10073" unicode="&#x437;" horiz-adv-x="584" 
d="M90 411c0 19.333 6.32617 37.834 18.9932 55.501s30.334 32.167 53.001 43.5c19.333 10.667 42 18 68 22s53 6 81 6c40 0 74 -3.5 102 -10.5s51 -16.667 69 -29s31 -26.833 39 -43.5s12 -34.334 12 -53.001c0 -12 -2.16699 -24.167 -6.5 -36.5s-11.5 -23.833 -21.5 -34.5
s-23.167 -20 -39.5 -28s-36.166 -13.333 -59.499 -16c20.667 -3.33301 40.167 -8.66602 58.5 -15.999s34.333 -17 48 -29s24.334 -26.5 32.001 -43.5s11.5 -36.5 11.5 -58.5c0 -49.333 -20.667 -87 -62 -113s-101.333 -39 -180 -39c-38.667 0 -73.167 3.66699 -103.5 11
s-56 17.833 -77 31.5s-37.167 29.667 -48.5 48s-17 38.5 -17 60.5h36c0 -16.667 5.16699 -32.5 15.5 -47.5s24.833 -28 43.5 -39s40.834 -19.667 66.501 -26s53.834 -9.5 84.501 -9.5c28.667 0 55.5 2.66699 80.5 8s46.833 13.333 65.5 24s33.334 23.5 44.001 38.5
s16 32.167 16 51.5c0 11.333 -2.33301 24.833 -7 40.5s-13.334 30.5 -26.001 44.5s-30.167 25.833 -52.5 35.5s-51.166 14.5 -86.499 14.5h-86v24h86c18.667 0 36.834 1.83301 54.501 5.5s33.5 9.66699 47.5 18s25.333 19 34 32s13 29.167 13 48.5
c0 20.667 -4.5 38 -13.5 52s-21.5 25.167 -37.5 33.5s-35.333 14.166 -58 17.499s-48 5 -76 5c-24.667 0 -47.5 -1.5 -68.5 -4.5s-39.833 -8.5 -56.5 -16.5c-18 -8.66699 -32.667 -20 -44 -34s-17 -28.667 -17 -44h-36z" />
    <glyph glyph-name="afii10074" unicode="&#x438;" horiz-adv-x="641" 
d="M79 524h34v-482l410 482h41v-524h-34v478l-410 -478h-41v524z" />
    <glyph glyph-name="afii10075" unicode="&#x439;" horiz-adv-x="641" 
d="M79 524h34v-482l410 482h41v-524h-34v478l-410 -478h-41v524zM209 739c0 -15.333 3.16895 -28.167 9.50195 -38.5s14.666 -18.833 24.999 -25.5s22.166 -11.334 35.499 -14.001s27 -4 41 -4s28 1.33301 42 4s26.5 7 37.5 13s19.833 14.333 26.5 25s10 24 10 40h21
c0 -35.333 -11.667 -62.166 -35 -80.499s-58 -27.5 -104 -27.5c-42 0 -74.167 9.5 -96.5 28.5s-33.5 45.5 -33.5 79.5h21z" />
    <glyph glyph-name="afii10076" unicode="&#x43a;" horiz-adv-x="590" 
d="M82 524h34v-285l352 285h45l-232 -188l288 -336h-41l-271 319l-141 -116v-203h-34v524z" />
    <glyph glyph-name="afii10077" unicode="&#x43b;" horiz-adv-x="656" 
d="M546 0v496.001h-379v-121c0 -19.333 -0.333008 -39.833 -1 -61.5s-1.5 -43.167 -2.5 -64.5s-2.16699 -41.333 -3.5 -60s-3 -34.667 -5 -48c-6.66699 -52 -18.667 -90.5 -36 -115.5s-43.333 -37.5 -78 -37.5c-9.33301 0 -18 1 -26 3l-14 4l5 28
c3.33301 -1.33301 7.83301 -2.83301 13.5 -4.5s10.167 -2.5 13.5 -2.5c11.333 0 22.833 2.66699 34.5 8s22.167 15.333 31.5 30c6 9.33301 11.167 22.833 15.5 40.5s7.83301 42.167 10.5 73.5s4.66699 70.666 6 117.999s2 105 2 173v65h447v-524h-34z" />
    <glyph glyph-name="afii10078" unicode="&#x43c;" horiz-adv-x="769" 
d="M691 524v-524h-33v377l6 101l-263 -460h-34l-262 460l5 -101v-377h-33v524h39l268 -476l268 476h39z" />
    <glyph glyph-name="afii10079" unicode="&#x43d;" horiz-adv-x="641" 
d="M78 524h34v-237h418v237h34v-524h-34v259h-418v-259h-34v524z" />
    <glyph glyph-name="afii10080" unicode="&#x43e;" horiz-adv-x="654" 
d="M608 266c0 -43.333 -6.50098 -82.166 -19.501 -116.499s-31.5 -63.5 -55.5 -87.5s-53.333 -42.333 -88 -55s-74 -19 -118 -19s-83.333 6.5 -118 19.5s-64.167 31.5 -88.5 55.5s-42.833 53.333 -55.5 88s-19 73.667 -19 117c0 40.667 6.5 77.667 19.5 111
s31.833 61.666 56.5 84.999s54.167 41.5 88.5 54.5s73.166 19.5 116.499 19.5c42.667 0 81.334 -6.16699 116.001 -18.5s64.334 -30.166 89.001 -53.499s43.5 -51.833 56.5 -85.5s19.5 -71.834 19.5 -114.501zM571.999 266c0 37.333 -6 71.166 -18 101.499
s-28.667 56 -50 77s-47.166 37.167 -77.499 48.5s-63.5 17 -99.5 17c-36.667 0 -70 -5.66699 -100 -17s-55.833 -27.666 -77.5 -48.999s-38.334 -47 -50.001 -77s-17.5 -63.667 -17.5 -101s5.83301 -71.333 17.5 -102s28.334 -57 50.001 -79s47.5 -39 77.5 -51
s63.333 -18 100 -18c36 0 69.167 6 99.5 18s56.166 29 77.499 51s38 48.333 50 79s18 64.667 18 102z" />
    <glyph glyph-name="afii10081" unicode="&#x43f;" horiz-adv-x="641" 
d="M78 524h487v-524h-34v496h-419v-496h-34v524z" />
    <glyph glyph-name="afii10082" unicode="&#x440;" horiz-adv-x="682" 
d="M116 -201l-34 -0.00195312v725h34v-139c12.667 30 28.167 54.833 46.5 74.5s38.166 35.334 59.499 47.001s43.833 19.834 67.5 24.501s47.167 7 70.5 7c42.667 0 81.167 -6.66699 115.5 -20s63.5 -32 87.5 -56s42.5 -53 55.5 -87s19.5 -71.667 19.5 -113
s-6.5 -78.833 -19.5 -112.5s-31.5 -62.5 -55.5 -86.5s-53.167 -42.5 -87.5 -55.5s-72.833 -19.5 -115.5 -19.5c-22.667 0 -46 2.5 -70 7.5s-47 13.167 -69 24.5s-42.167 26.333 -60.5 45s-33.166 42 -44.499 70v-336zM602 261.998c0 36.667 -5.83301 70.1689 -17.5 100.502
s-28.334 56.5 -50.001 78.5s-47.334 39 -77.001 51s-62.5 18 -98.5 18s-68.833 -6 -98.5 -18s-55.334 -28.833 -77.001 -50.5s-38.334 -47.834 -50.001 -78.501s-17.5 -64.334 -17.5 -101.001c0 -36 5.83301 -69.167 17.5 -99.5s28.334 -56.333 50.001 -78
s47.334 -38.5 77.001 -50.5s62.5 -18 98.5 -18s68.833 6 98.5 18s55.334 29 77.001 51s38.334 48 50.001 78s17.5 63 17.5 99z" />
    <glyph glyph-name="afii10083" unicode="&#x441;" horiz-adv-x="612" 
d="M581 168c-3.33301 -25.333 -11.833 -48.834 -25.5 -70.501s-31.5 -40.667 -53.5 -57s-48 -29.166 -78 -38.499s-62.333 -14 -97 -14c-43.333 0 -82.333 6.5 -117 19.5s-64.334 31.5 -89.001 55.5s-43.5 53.167 -56.5 87.5s-19.5 72.833 -19.5 115.5
s6.5 80.834 19.5 114.501s31.833 62.167 56.5 85.5s54.334 41.166 89.001 53.499s73.667 18.5 117 18.5c34 0 65.5 -4 94.5 -12s54.333 -18.833 76 -32.5s39.334 -30 53.001 -49s22.167 -39.5 25.5 -61.5h-40c-13.333 40.667 -38.666 72 -75.999 94s-82.333 33 -135 33
c-35.333 0 -67.833 -5.66699 -97.5 -17s-55.334 -27.5 -77.001 -48.5s-38.667 -46.667 -51 -77s-18.5 -64.166 -18.5 -101.499s6 -71.333 18 -102s28.833 -57 50.5 -79s47.667 -39 78 -51s63.5 -18 99.5 -18c27.333 0 53.166 4 77.499 12s46 18.833 65 32.5s35 29.667 48 48
s21.5 38.166 25.5 59.499h38z" />
    <glyph glyph-name="afii10084" unicode="&#x442;" horiz-adv-x="514" 
d="M240 0v500h-229v24h493v-24h-229v-500h-35z" />
    <glyph glyph-name="afii10085" unicode="&#x443;" horiz-adv-x="535" 
d="M250 -78l-32.502 -55c-9 -15.333 -19.167 -28 -30.5 -38s-25 -17.5 -41 -22.5s-37 -7.5 -63 -7.5c-8.66699 0 -17.167 0.666992 -25.5 2s-14.833 2.66602 -19.5 3.99902v28c4.66699 -1.33301 12.334 -2.66602 23.001 -3.99902s21 -2 31 -2c18.667 0 35 3.33301 49 10
s26.833 16.5 38.5 29.5s22.834 29.333 33.501 49s21.667 42.5 33 68.5l-248 540h42l223 -515l225 515h39l-277 -602v0z" />
    <glyph glyph-name="afii10086" unicode="&#x444;" horiz-adv-x="1130" 
d="M547 -202l-0.00976562 335c-19.333 -52.667 -48.166 -90.834 -86.499 -114.501s-83.166 -35.5 -134.499 -35.5c-38 0 -72.167 6.66699 -102.5 20s-56.333 32.333 -78 57s-38.167 54.167 -49.5 88.5s-17 72.166 -17 113.499c0 42 5.83301 79.667 17.5 113
s28.334 61.666 50.001 84.999s48 41.333 79 54s65.833 19 104.5 19c20.667 0 42.334 -3.33301 65.001 -10s44.167 -16.5 64.5 -29.5s38.333 -29.667 54 -50s26.834 -43.833 33.501 -70.5v319h34v-319c6.66699 26.667 17.834 50.167 33.501 70.5s33.667 37 54 50
s41.833 22.833 64.5 29.5s44.334 10 65.001 10c38.667 0 73.5 -6.33301 104.5 -19s57.333 -30.667 79 -54s38.334 -51.666 50.001 -84.999s17.5 -71 17.5 -113c0 -41.333 -5.66699 -79.166 -17 -113.499s-27.833 -63.833 -49.5 -88.5s-47.667 -43.667 -78 -57
s-64.5 -20 -102.5 -20c-51.333 0 -96.166 11.833 -134.499 35.5s-67.166 61.834 -86.499 114.501v-335h-34zM1012.99 261c0 36 -5.16211 69 -15.4951 99s-24.833 55.667 -43.5 77s-41.334 38 -68.001 50s-56.334 18 -89.001 18c-33.333 0 -63.333 -6.33301 -90 -19
s-49.334 -30.334 -68.001 -53.001s-33 -49.5 -43 -80.5s-15 -64.833 -15 -101.5c0 -14 1.16699 -27.167 3.5 -39.5s5.16602 -24.166 8.49902 -35.499c13.333 -55.333 38.5 -96.666 75.5 -123.999s80.833 -41 131.5 -41c32.667 0 62.167 6.16699 88.5 18.5
s48.666 29.666 66.999 51.999s32.5 48.833 42.5 79.5s15 64 15 100zM114.995 261c0 -36 5.00488 -69.334 15.0049 -100.001s24.167 -57.167 42.5 -79.5s40.666 -39.666 66.999 -51.999s55.833 -18.5 88.5 -18.5c50.667 0 94.5 13.5 131.5 40.5s62.167 68.167 75.5 123.5
c3.33301 11.333 6.16602 23 8.49902 35s3.5 25.667 3.5 41c0 36.667 -5 70.5 -15 101.5s-24.333 57.833 -43 80.5s-41.334 40.334 -68.001 53.001s-56.667 19 -90 19c-32.667 0 -62.334 -5.83301 -89.001 -17.5s-49.334 -28.334 -68.001 -50.001s-33.167 -47.5 -43.5 -77.5
s-15.5 -63 -15.5 -99z" />
    <glyph glyph-name="afii10087" unicode="&#x445;" horiz-adv-x="562" 
d="M27 0l237 278l-211 246h42l189 -221l184 221h41l-208 -244l240 -280h-39l-220 257l-218 -257h-37z" />
    <glyph glyph-name="afii10088" unicode="&#x446;" horiz-adv-x="640" 
d="M529 29v495h35v-495h63v-199h-34v170h-514v524h34v-495h416z" />
    <glyph glyph-name="afii10089" unicode="&#x447;" horiz-adv-x="617" 
d="M540 0l-34 -0.000976562v227c-21.333 -7.33301 -43.833 -13.166 -67.5 -17.499s-45.834 -8 -66.501 -11s-38.667 -5 -54 -6s-25.666 -1.5 -30.999 -1.5c-32 0 -62.167 2.83301 -90.5 8.5s-53 15.5 -74 29.5s-37.667 33 -50 57s-18.5 54 -18.5 90v148h33v-148
c0 -31.333 5.66699 -57 17 -77s26.333 -35.833 45 -47.5s40.167 -19.834 64.5 -24.501s49.5 -7 75.5 -7c8 0 20 0.666992 36 2s34 3.33301 54 6s41 6.33398 63 11.001s43.333 10.667 64 18v267h34v-524z" />
    <glyph glyph-name="afii10090" unicode="&#x448;" horiz-adv-x="931" 
d="M111 524v-496h339v496h34v-496h339v496h34v-524h-780v524h34z" />
    <glyph glyph-name="afii10091" unicode="&#x449;" horiz-adv-x="932" 
d="M78 524h34v-496h339v496h34v-496h339v496h34v-496h62v-198h-34v170h-808v524z" />
    <glyph glyph-name="afii10092" unicode="&#x44a;" horiz-adv-x="667" 
d="M195 289l242.999 -0.000976562c66.667 0 114 -13.5 142 -40.5s42 -62.833 42 -107.5c0 -49.333 -14.167 -85.166 -42.5 -107.499s-76.166 -33.5 -143.499 -33.5h-275v496h-179v28h213v-235zM194.999 28.999l241 0.000976562c54.667 0 93.167 8.66699 115.5 26
s33.5 46 33.5 86c0 37.333 -11.667 66.666 -35 87.999s-62 32 -116 32h-239v-232z" />
    <glyph glyph-name="afii10093" unicode="&#x44b;" horiz-adv-x="828" 
d="M114 289l248.999 -0.000976562c33.333 0 61.333 -3.5 84 -10.5s40.834 -17 54.501 -30s23.5 -28.667 29.5 -47s9 -38.5 9 -60.5c0 -49.333 -14 -85.166 -42 -107.499s-75.667 -33.5 -143 -33.5h-276v524h35v-235zM113.999 28.999l241 0.000976562
c54.667 0 93.167 8.66699 115.5 26s33.5 46 33.5 86c0 37.333 -11.667 66.666 -35 87.999s-62 32 -116 32h-239v-232zM711.999 524h35v-524h-35v524z" />
    <glyph glyph-name="afii10094" unicode="&#x44c;" horiz-adv-x="584" 
d="M114 289l248.998 -0.000976562c34 0 62.333 -3.5 85 -10.5s40.834 -17 54.501 -30s23.5 -28.667 29.5 -47s9 -38.5 9 -60.5c0 -49.333 -14.167 -85.166 -42.5 -107.499s-76.166 -33.5 -143.499 -33.5h-275v524h34v-235zM113.998 28.999l241.001 0.000976562
c55.333 0 94.166 8.66699 116.499 26s33.5 46 33.5 86c0 37.333 -11.833 66.666 -35.5 87.999s-62.5 32 -116.5 32h-239v-232z" />
    <glyph glyph-name="afii10095" unicode="&#x44d;" horiz-adv-x="612" 
d="M301 16c36 0 69 6.16602 99 18.499s56 29.333 78 51s39 47.5 51 77.5s18 63 18 99h-311v28h311c0 31.333 -6.5 60.333 -19.5 87s-30.667 49.834 -53 69.501s-48.333 35.167 -78 46.5s-60.834 17 -93.501 17c-52.667 0 -97.667 -11 -135 -33s-62.666 -53.333 -75.999 -94
h-40c3.33301 22 11.833 42.5 25.5 61.5s31.334 35.333 53.001 49s47 24.5 76 32.5s60.5 12 94.5 12c43.333 0 82.333 -6.16699 117 -18.5s64.334 -30.166 89.001 -53.499s43.5 -51.833 56.5 -85.5s19.5 -71.834 19.5 -114.501s-6.5 -81.167 -19.5 -115.5
s-31.833 -63.5 -56.5 -87.5s-54.334 -42.5 -89.001 -55.5s-73.667 -19.5 -117 -19.5c-35.333 0 -67.833 4.66699 -97.5 14s-55.5 22.166 -77.5 38.499s-40 35.333 -54 57s-22.333 45.167 -25 70.5h38c4 -21.333 12.5 -41.166 25.5 -59.499s29 -34.333 48 -48
s40.667 -24.5 65 -32.5s50.166 -12 77.499 -12z" />
    <glyph glyph-name="afii10096" unicode="&#x44e;" horiz-adv-x="905" 
d="M862 266c0 -43.333 -6.50293 -82.166 -19.5029 -116.499s-31.5 -63.5 -55.5 -87.5s-53.333 -42.333 -88 -55s-74 -19 -118 -19s-83.333 6.5 -118 19.5s-64.167 31.5 -88.5 55.5s-42.833 53.167 -55.5 87.5s-19 73.166 -19 116.499h-171v-267h-34v524h34v-233h171
c5.33301 78.667 32.833 139.5 82.5 182.5s115.834 64.5 198.501 64.5c42.667 0 81.334 -6.16699 116.001 -18.5s64.334 -30.166 89.001 -53.499s43.5 -51.833 56.5 -85.5s19.5 -71.834 19.5 -114.501zM825.997 266c0 37.333 -6 71.167 -18 101.5s-28.667 56 -50 77
s-47.166 37.167 -77.499 48.5s-63.5 17 -99.5 17c-36.667 0 -70 -5.66699 -100 -17s-55.833 -27.5 -77.5 -48.5s-38.5 -46.5 -50.5 -76.5s-18 -63.667 -18 -101s6 -71.333 18 -102s28.833 -57 50.5 -79s47.5 -39.167 77.5 -51.5s63.333 -18.5 100 -18.5
c36 0 69.167 6 99.5 18s56.166 29 77.499 51s38 48.333 50 79s18 64.667 18 102z" />
    <glyph glyph-name="afii10097" unicode="&#x44f;" horiz-adv-x="582" 
d="M250 232l-149.998 -232.001h-35l146 232c-30.667 2.66699 -56.334 8.33398 -77.001 17.001s-37.334 19.334 -50.001 32.001s-21.667 27.167 -27 43.5s-8 34.166 -8 53.499c0 49.333 14.833 86 44.5 110s78.167 36 145.5 36h272v-524h-34v232h-227zM477.002 495.999
h-238.001c-55.333 0 -94.666 -9.5 -117.999 -28.5s-35 -48.5 -35 -88.5c0 -37.333 11.667 -66.5 35 -87.5s62.333 -31.5 117 -31.5h239v236z" />
    <glyph glyph-name="afii10071" unicode="&#x451;" horiz-adv-x="649" 
d="M580 146c-5.33301 -22 -15.1631 -42.3311 -29.4961 -60.998s-32.333 -34.834 -54 -48.501s-46.834 -24.334 -75.501 -32.001s-60 -11.5 -94 -11.5c-43.333 0 -82.333 6.33301 -117 19s-64.167 31 -88.5 55s-43 52.833 -56 86.5s-19.5 71.5 -19.5 113.5s6.5 80 19.5 114
s31.833 63 56.5 87s54.167 42.5 88.5 55.5s73.166 19.5 116.499 19.5c42.667 0 81.167 -6.5 115.5 -19.5s63.666 -31.5 87.999 -55.5s43 -53.167 56 -87.5s19.5 -72.5 19.5 -114.5h-519c0 -42 6 -78.333 18 -109s28.5 -56 49.5 -76s46.167 -34.833 75.5 -44.5
s61.666 -14.5 96.999 -14.5c25.333 0 49.333 3 72 9s43 14.5 61 25.5s33.5 24 46.5 39s22.5 31.833 28.5 50.5h45zM566.003 294.002c-0.666992 36.667 -7.49902 68.835 -20.499 96.502s-30.333 50.667 -52 69s-46.834 32.166 -75.501 41.499s-59 14 -91 14
c-32.667 0 -63.5 -4.83301 -92.5 -14.5s-54.5 -23.834 -76.5 -42.501s-39.333 -41.667 -52 -69s-19 -59 -19 -95h479zM217.004 656.003h-34v67h34v-67zM457.004 656.003h-34v67h34v-67z" />
    <glyph glyph-name="afii10099" unicode="&#x452;" horiz-adv-x="641" 
d="M78 633h-55.998v24h56v82h35v-82h235v-24h-235v-235c11.333 28 26.333 51 45 69s39.167 32.167 61.5 42.5s45.666 17.5 69.999 21.5s48.5 6 72.5 6c61.333 0 110.333 -17.833 147 -53.5s55 -87.167 55 -154.5v-201c0 -38 -5.66699 -71.333 -17 -100
s-25.666 -52.5 -42.999 -71.5s-36 -33.333 -56 -43s-39 -14.5 -57 -14.5h-82v24h38c26 0 50.167 5.33301 72.5 16s41.666 25 57.999 43s29 38.833 38 62.5s13.5 48.167 13.5 73.5v186c0 66.667 -14.333 117.667 -43 153s-73 53 -133 53c-33.333 0 -64.5 -5.33301 -93.5 -16
s-54.333 -25.167 -76 -43.5s-38.834 -40.333 -51.501 -66s-19 -53.5 -19 -83.5v-301h-35v633z" />
    <glyph glyph-name="afii10100" unicode="&#x453;" horiz-adv-x="536" 
d="M76 521h446v-24h-411v-497h-35v521zM367 786h43l-91 -115h-19z" />
    <glyph glyph-name="afii10101" unicode="&#x454;" horiz-adv-x="612" 
d="M392 262l-310.001 0.00195312c2 -40 9.5 -75.833 22.5 -107.5s30.167 -58.167 51.5 -79.5s46.5 -37.666 75.5 -48.999s60.833 -17 95.5 -17c27.333 0 53.166 4 77.499 12s46 18.833 65 32.5s35 29.834 48 48.501s21.5 38.667 25.5 60h38
c-3.33301 -25.333 -11.833 -49 -25.5 -71s-31.5 -41.167 -53.5 -57.5s-48 -29.333 -78 -39s-62.333 -14.5 -97 -14.5c-43.333 0 -82.333 6.66699 -117 20s-64.334 32.166 -89.001 56.499s-43.5 53.666 -56.5 87.999s-19.5 72.833 -19.5 115.5s6.5 81.167 19.5 115.5
s31.833 63.666 56.5 87.999s54.334 43.166 89.001 56.499s73.667 20 117 20c34 0 65.5 -4.33301 94.5 -13s54.333 -20.5 76 -35.5s39.334 -32.333 53.001 -52s22.167 -40.5 25.5 -62.5h-40c-13.333 40.667 -38.666 73.5 -75.999 98.5s-82.333 37.5 -135 37.5
c-30.667 0 -59.334 -5 -86.001 -15s-50.667 -24.667 -72 -44s-39.166 -43 -53.499 -71s-24.5 -60.333 -30.5 -97h309v-24z" />
    <glyph glyph-name="afii10102" unicode="&#x455;" horiz-adv-x="563" 
d="M68 135c4.66699 -38.667 25.668 -69.5039 63.001 -92.5039s87.333 -34.5 150 -34.5c66.667 0 119 10.833 157 32.5s57 52.5 57 92.5c0 31.333 -10.833 55.333 -32.5 72s-51.5 28 -89.5 34l-163 24c-30 4 -55.5 9.33301 -76.5 16s-38 15.334 -51 26.001
s-22.5 23.5 -28.5 38.5s-9 32.833 -9 53.5c0 44 19 78.833 57 104.5s96.333 38.5 175 38.5c38 0 71.667 -3.66699 101 -11s53.833 -17.166 73.5 -29.499s34.5 -27 44.5 -44s15.333 -35.167 16 -54.5h-39c-5.33301 34.667 -26 62.334 -62 83.001s-84.333 31 -145 31
c-56.667 0 -101.334 -10.5 -134.001 -31.5s-49 -48.5 -49 -82.5c0 -35.333 13.333 -60.666 40 -75.999s62 -26 106 -32l144 -22c29.333 -4 54.166 -9.33301 74.499 -16s36.833 -15.167 49.5 -25.5s21.834 -22.833 27.501 -37.5s8.5 -32 8.5 -52
c0 -53.333 -20.833 -93.333 -62.5 -120s-107.167 -40 -196.5 -40c-78.667 0 -138 14.333 -178 43s-61.667 66 -65 112h37z" />
    <glyph glyph-name="afii10103" unicode="&#x456;" horiz-adv-x="203" 
d="M84 522h35v-522h-35v522zM84 726h35v-45h-35v45z" />
    <glyph glyph-name="afii10104" unicode="&#x457;" horiz-adv-x="203" 
d="M84 522h35v-522h-35v522zM61 659h-34v67h34v-67zM176 659h-34v67h34v-67z" />
    <glyph glyph-name="afii10105" unicode="&#x458;" horiz-adv-x="200" 
d="M125 -86c0 -22.667 -1.33203 -41.666 -3.99902 -56.999s-7.66699 -27.833 -15 -37.5s-17.833 -16.5 -31.5 -20.5s-31.5 -6 -53.5 -6c-12.667 0 -24 0.833008 -34 2.5s-17.333 3.16699 -22 4.5l1 29c7.33301 -2.66699 15 -4.5 23 -5.5s15.667 -1.83301 23 -2.5
c19.333 0 34.166 2.66699 44.499 8s18 12.833 23 22.5s8 21.167 9 34.5s1.5 27.666 1.5 42.999v589h35v-604zM125.001 652.001h-34v67h34v-67z" />
    <glyph glyph-name="afii10106" unicode="&#x459;" horiz-adv-x="1049" 
d="M828 284c34 0 62.5 -3.16699 85.5 -9.5s41.5 -15.666 55.5 -27.999s24 -27.333 30 -45s9 -37.5 9 -59.5c0 -49.333 -14.333 -85.333 -43 -108s-76.667 -34 -144 -34h-275v496h-379v-121c0 -19.333 -0.333008 -39.833 -1 -61.5s-1.5 -43.167 -2.5 -64.5
s-2.16699 -41.333 -3.5 -60s-3 -34.667 -5 -48c-6.66699 -52 -18.667 -89.333 -36 -112s-43.333 -34 -78 -34h-12c-4 0 -7.66699 0.333008 -11 1l-12 2v10h25c11.333 0 23.166 4 35.499 12s23.5 19.333 33.5 34c6 9.33301 10.833 22.833 14.5 40.5
s6.83398 42.167 9.50098 73.5s4.66699 70.666 6 117.999s2 105 2 173v62h450v-237h246zM582 24h237c54.667 0 93.667 9.5 117 28.5s35 48.5 35 88.5c0 37.333 -11.667 66.5 -35 87.5s-62 31.5 -116 31.5h-238v-236z" />
    <glyph glyph-name="afii10107" unicode="&#x45a;" horiz-adv-x="1033" 
d="M810 285c34 0 62.667 -3.33301 86 -10s42 -16.167 56 -28.5s24.167 -27.333 30.5 -45s9.5 -37.5 9.5 -59.5c0 -49.333 -14.5 -85.333 -43.5 -108s-77.167 -34 -144.5 -34h-274v261h-416v-261h-36v520h36v-235h416v235h34v-235h246zM564 24l238 0.000976562
c55.333 0 94.5 9.5 117.5 28.5s34.5 48.5 34.5 88.5c0 37.333 -11.5 66.666 -34.5 87.999s-61.833 32 -116.5 32h-239v-237z" />
    <glyph glyph-name="afii10108" unicode="&#x45b;" horiz-adv-x="641" 
d="M78 632h-56v24h56v70h35v-70h235v-24h-235v-228c19.333 42 48.333 74.833 87 98.5s90 35.5 154 35.5c28 0 54.833 -3.83301 80.5 -11.5s48.167 -19.334 67.5 -35.001s34.833 -35.667 46.5 -60s17.5 -53.5 17.5 -87.5v-344h-34v296c0 69.333 -13.5 122.333 -40.5 159
s-72.167 55 -135.5 55c-30 0 -59.5 -3.66699 -88.5 -11s-55 -20 -78 -38s-41.5 -42.167 -55.5 -72.5s-21 -68.166 -21 -113.499v-275h-35v632z" />
    <glyph glyph-name="afii10109" unicode="&#x45c;" horiz-adv-x="590" 
d="M80 521h36v-282l351 282h45l-227 -182l284 -339h-47l-267 318l-139 -114v-204h-36v521zM354 739h45l-92 -115h-19z" />
    <glyph glyph-name="afii10110" unicode="&#x45e;" horiz-adv-x="535" 
d="M251 -80c-9.33301 -22 -18.502 -40.8301 -27.502 -56.4971s-19.5 -28.334 -31.5 -38.001s-26.5 -16.834 -43.5 -21.501s-38.5 -7 -64.5 -7c-8.66699 0 -17.167 0.666992 -25.5 2s-14.833 2.66602 -19.5 3.99902v28c4.66699 -1.33301 12.334 -2.5 23.001 -3.5
s21 -1.5 31 -1.5c18.667 0 35 3.16699 49 9.5s26.833 16 38.5 29s22.834 29.333 33.501 49s21.667 42.5 33 68.5l-248 540h42l223 -515l225 515h39zM153.998 737.003c0 -15.333 3.16895 -28.167 9.50195 -38.5s14.666 -18.833 24.999 -25.5s22.166 -11.334 35.499 -14.001
s27 -4 41 -4s28 1.33301 42 4s26.5 7 37.5 13s19.833 14.333 26.5 25s10 24 10 40h21c0 -35.333 -11.667 -62.166 -35 -80.499s-58 -27.5 -104 -27.5c-42 0 -74.167 9.5 -96.5 28.5s-33.5 45.5 -33.5 79.5h21z" />
    <glyph glyph-name="afii10193" unicode="&#x45f;" horiz-adv-x="640" 
d="M530 24v498h35v-522h-226v-170h-35v170h-226v522h35v-498h417z" />
    <glyph glyph-name="afii10050" unicode="&#x490;" horiz-adv-x="626" 
d="M92 0v726h446v80h35v-110h-443v-696h-38z" />
    <glyph glyph-name="afii10098" unicode="&#x491;" horiz-adv-x="536" 
d="M76 521h411v60h35v-84h-411v-497h-35v521z" />
    <glyph glyph-name="endash" unicode="&#x2013;" horiz-adv-x="487" 
d="M0 271h487v-24h-487v24z" />
    <glyph glyph-name="emdash" unicode="&#x2014;" horiz-adv-x="930" 
d="M930 247h-930v24h930v-24z" />
    <glyph glyph-name="quoteleft" unicode="&#x2018;" horiz-adv-x="269" 
d="M158 538l-47 0.00292969v104c0 35.333 3.5 60.666 10.5 75.999s19.167 25.666 36.5 30.999v-27c-11.333 -6.66699 -18 -15.334 -20 -26.001s-3 -23.667 -3 -39v-66h23v-53z" />
    <glyph glyph-name="quoteright" unicode="&#x2019;" horiz-adv-x="269" 
d="M113 753l47 -0.00292969v-104c0 -35.333 -3.5 -60.666 -10.5 -75.999s-19.167 -25.666 -36.5 -30.999v27c11.333 6.66699 18 15.334 20 26.001s3 23.667 3 39v66h-23v53z" />
    <glyph glyph-name="quotesinglbase" unicode="&#x201a;" horiz-adv-x="269" 
d="M111 53l47 -0.00292969v-104c0 -35.333 -3.5 -60.666 -10.5 -75.999s-19.167 -25.666 -36.5 -30.999v27c11.333 6.66699 18 15.334 20 26.001s3 23.667 3 39v66h-23v53z" />
    <glyph glyph-name="quotedblleft" unicode="&#x201c;" horiz-adv-x="443" 
d="M158 538l-47 0.00292969v104c0 35.333 3.5 60.666 10.5 75.999s19.167 25.666 36.5 30.999v-27c-11.333 -6.66699 -18 -15.334 -20 -26.001s-3 -23.667 -3 -39v-66h23v-53zM331 538.003l-47 0.00292969v104c0 35.333 3.5 60.666 10.5 75.999s19.167 25.666 36.5 30.999
v-27c-11.333 -6.66699 -18 -15.334 -20 -26.001s-3 -23.667 -3 -39v-66h23v-53z" />
    <glyph glyph-name="quotedblright" unicode="&#x201d;" horiz-adv-x="443" 
d="M283 753l47 -0.00292969v-104c0 -35.333 -3.5 -60.666 -10.5 -75.999s-19.167 -25.666 -36.5 -30.999v27c11.333 6.66699 18 15.334 20 26.001s3 23.667 3 39v66h-23v53zM110 752.997l47 -0.00292969v-104c0 -35.333 -3.5 -60.666 -10.5 -75.999
s-19.167 -25.666 -36.5 -30.999v27c11.333 6.66699 18 15.334 20 26.001s3 23.667 3 39v66h-23v53z" />
    <glyph glyph-name="quotedblbase" unicode="&#x201e;" horiz-adv-x="443" 
d="M284 52l47 -0.00292969v-104c0 -35.333 -3.5 -60.666 -10.5 -75.999s-19.167 -25.666 -36.5 -30.999v27c11.333 6.66699 18 15.334 20 26.001s3 23.667 3 39v66h-23v53zM111 51.9971l47 -0.00292969v-104c0 -35.333 -3.5 -60.666 -10.5 -75.999
s-19.167 -25.666 -36.5 -30.999v27c11.333 6.66699 18 15.334 20 26.001s3 23.667 3 39v66h-23v53z" />
    <glyph glyph-name="dagger" unicode="&#x2020;" horiz-adv-x="654" 
d="M309 443h-243v30h243v253h36v-253h243v-30h-243v-626h-36v626z" />
    <glyph glyph-name="daggerdbl" unicode="&#x2021;" 
d="M197 216c0 -12.667 -0.837891 -26.3311 -2.50488 -40.998s-5.66699 -30 -12 -46s-16 -32.333 -29 -49s-30.5 -33.667 -52.5 -51v-1c10.667 6 22.834 10.333 36.501 13s27 4.5 40 5.5s24.667 1.33301 35 1s17.5 -0.5 21.5 -0.5c15.333 0 31.333 -2 48 -6l52 -12.5
c18 -4.33301 36.667 -8.5 56 -12.5s39.666 -6 60.999 -6c28 0 55.667 4.66699 83 14s51.333 21 72 35l12 -29c-19.333 -15.333 -42.666 -27.5 -69.999 -36.5s-57.666 -13.5 -90.999 -13.5c-24 0 -47.333 2.16699 -70 6.5s-44.667 9.33301 -66 15s-42.166 10.667 -62.499 15
s-40.166 6.5 -59.499 6.5c-23.333 0 -46.333 -3 -69 -9s-42.334 -13.667 -59.001 -23l-19 33c32.667 21.333 59 47.333 79 78s30 66 30 106c0 18 -2.5 37 -7.5 57s-13.167 42.667 -24.5 68h-95v26h88c-16 40.667 -27.167 73.167 -33.5 97.5s-9.5 45.5 -9.5 63.5
c0 30 6 57.667 18 83s29.333 47.333 52 66s50.334 33.167 83.001 43.5s69.667 15.5 111 15.5c84.667 0 150.334 -18.833 197.001 -56.5s70 -89.834 70 -156.501h-34c0 26.667 -5.5 51.5 -16.5 74.5s-26.5 42.667 -46.5 59s-44.333 29.166 -73 38.499s-60.667 14 -96 14
c-33.333 0 -63.833 -4.66699 -91.5 -14s-51.5 -22.166 -71.5 -38.499s-35.5 -35.833 -46.5 -58.5s-16.5 -47.334 -16.5 -74.001c0 -24 3.83301 -48.167 11.5 -72.5s18.167 -52.5 31.5 -84.5h239v-26h-229c10.667 -31.333 17.667 -55.5 21 -72.5s5 -31.833 5 -44.5z" />
    <glyph glyph-name="bullet" unicode="&#x2022;" horiz-adv-x="470" 
d="M127 300c0 30.667 9.99902 55.835 29.999 75.502s46 29.5 78 29.5c30.667 0 56.167 -9.83301 76.5 -29.5s30.5 -44.834 30.5 -75.501c0 -14.667 -2.66699 -28.5 -8 -41.5s-12.833 -24.333 -22.5 -34s-21.167 -17.334 -34.5 -23.001s-27.666 -8.5 -42.999 -8.5
c-31.333 0 -57 10.167 -77 30.5s-30 45.833 -30 76.5z" />
    <glyph glyph-name="ellipsis" unicode="&#x2026;" horiz-adv-x="787" 
d="M9 50h48v-50h-48v50zM364 50h47v-50h-47v50zM719 50h48v-50h-48v50z" />
    <glyph glyph-name="perthousand" unicode="&#x2030;" horiz-adv-x="1268" 
d="M167 571c0 -17.333 3.33203 -33.5 9.99902 -48.5s15.5 -28 26.5 -39s24 -19.667 39 -26s30.833 -9.5 47.5 -9.5s32.667 3.16699 48 9.5s28.5 15 39.5 26s19.833 24 26.5 39s10 31.167 10 48.5s-3.16699 33.5 -9.5 48.5s-15.166 28 -26.499 39s-24.5 19.667 -39.5 26
s-31.167 9.5 -48.5 9.5c-16.667 0 -32.5 -3.16699 -47.5 -9.5s-28 -15 -39 -26s-19.833 -24 -26.5 -39s-10 -31.167 -10 -48.5zM135.999 572c0 21.333 3.99805 41.5 11.998 60.5s18.833 35.5 32.5 49.5s29.834 25 48.501 33s38.667 12 60 12s41.5 -4 60.5 -12
s35.5 -19 49.5 -33s25 -30.5 33 -49.5s12 -39.167 12 -60.5s-4 -41.333 -12 -60s-19 -35 -33 -49s-30.5 -25 -49.5 -33s-39.167 -12 -60.5 -12s-41.166 4 -59.499 12s-34.5 19 -48.5 33s-25 30.333 -33 49s-12 38.667 -12 60zM644.997 727h36l-405 -743h-33zM511.997 137
c0 -17.333 3.16797 -33.501 9.50098 -48.501s15.166 -28 26.499 -39s24.333 -19.667 39 -26s30.667 -9.5 48 -9.5c16.667 0 32.5 3.16699 47.5 9.5s28 15 39 26s19.833 24 26.5 39s10 31.167 10 48.5s-3.33301 33.5 -10 48.5s-15.5 28 -26.5 39s-24 19.667 -39 26
s-30.833 9.5 -47.5 9.5c-17.333 0 -33.5 -3.16699 -48.5 -9.5s-28 -15.166 -39 -26.499s-19.667 -24.5 -26 -39.5s-9.5 -30.833 -9.5 -47.5zM479.998 137.999c0 21.333 4 41.333 12 60s19 35 33 49s30.5 25 49.5 33s39.167 12 60.5 12s41.333 -4 60 -12s35 -19 49 -33
s25 -30.333 33 -49s12 -38.667 12 -60s-4 -41.333 -12 -60s-19 -35 -33 -49s-30.333 -25 -49 -33s-38.667 -12 -60 -12s-41.333 4 -60 12s-35 19 -49 33s-25.167 30.333 -33.5 49s-12.5 38.667 -12.5 60zM902.998 137.999c0 -17.333 3.33301 -33.5 10 -48.5
s15.5 -28.167 26.5 -39.5s24 -20.166 39 -26.499s31.167 -9.5 48.5 -9.5c16.667 0 32.5 3.16699 47.5 9.5s28.167 15.166 39.5 26.499s20.333 24.5 27 39.5s10 31.167 10 48.5s-3.33301 33.5 -10 48.5s-15.667 28 -27 39s-24.5 19.667 -39.5 26s-30.833 9.5 -47.5 9.5
c-17.333 0 -33.5 -3.16699 -48.5 -9.5s-28 -15 -39 -26s-19.833 -24 -26.5 -39s-10 -31.167 -10 -48.5zM871.998 137.999c0 21.333 4 41.333 12 60s19 35 33 49s30.5 25 49.5 33s39.167 12 60.5 12s41.333 -4 60 -12s35 -19 49 -33s25 -30.333 33 -49s12 -38.667 12 -60
s-4 -41.333 -12 -60s-19 -35 -33 -49s-30.333 -25 -49 -33s-38.667 -12 -60 -12s-41.333 4 -60 12s-35 19 -49 33s-25.167 30.333 -33.5 49s-12.5 38.667 -12.5 60z" />
    <glyph glyph-name="guilsinglleft" unicode="&#x2039;" horiz-adv-x="292" 
d="M256 413v-32l-145 -121l145 -121v-32l-181 137v32z" />
    <glyph glyph-name="guilsinglright" unicode="&#x203a;" horiz-adv-x="292" 
d="M257 276v-32l-181 -137v32l145 121l-145 121v32z" />
    <glyph glyph-name="afii61352" unicode="&#x2116;" horiz-adv-x="1290" 
d="M745 726v-726h-45l-590 676v-676h-39v726h45l590 -679v679h39zM853 440c0 59.333 15.5 103.166 46.5 131.499s76.833 42.5 137.5 42.5c61.333 0 107.666 -14.167 138.999 -42.5s47 -72.166 47 -131.499c0 -60 -15.667 -104.167 -47 -132.5s-77.666 -42.5 -138.999 -42.5
c-60.667 0 -106.5 14.167 -137.5 42.5s-46.5 72.5 -46.5 132.5zM881 439c0 -49.333 13.333 -87 40 -113s65.334 -39 116.001 -39c52 0 91 13 117 39s39 63.667 39 113c0 50 -13 87.833 -39 113.5s-65 38.5 -117 38.5c-50.667 0 -89.334 -12.833 -116.001 -38.5
s-40 -63.5 -40 -113.5zM1203 185v-31h-333v31h333z" />
    <glyph glyph-name="trademark" unicode="&#x2122;" horiz-adv-x="848" 
d="M338 753v-20h-91v-241h-32v241h-94v20h217zM455 753l96 -226l90 226h46v-261h-26v243l-98 -243h-24l-104 243v-243h-26v261h46z" />
    <glyph glyph-name=".null" horiz-adv-x="0" 
 />
    <glyph glyph-name="nonmarkingreturn" horiz-adv-x="305" 
 />
    <glyph glyph-name="percent" horiz-adv-x="855" 
d="M49 545c0 62.667 12.5 108.667 37.5 138s63.5 44 115.5 44s90.5 -14.5 115.5 -43.5s37.5 -75.167 37.5 -138.5s-12.5 -109.833 -37.5 -139.5s-63.5 -44.5 -115.5 -44.5s-90.5 15 -115.5 45s-37.5 76.333 -37.5 139zM70 545c0 -54.667 11.667 -97.5 35 -128.5
s55.666 -46.5 96.999 -46.5c42 0 74.333 15.5 97 46.5s34 73.833 34 128.5c0 54 -11.333 96.333 -34 127s-55 46 -97 46c-41.333 0 -73.666 -15.333 -96.999 -46s-35 -73 -35 -127zM500 163c0 62.667 12.667 108.998 38 138.998s64 45 116 45s90.333 -14.833 115 -44.5
s37 -76.167 37 -139.5s-12.333 -109.666 -37 -138.999s-63 -44 -115 -44s-90.667 14.833 -116 44.5s-38 75.834 -38 138.501zM523 162.998c0 -54 11.5 -96.333 34.5 -127s55.167 -46 96.5 -46c42 0 74.333 15.333 97 46s34 73 34 127c0 54.667 -11.333 97.334 -34 128.001
s-55 46 -97 46c-41.333 0 -73.5 -15.333 -96.5 -46s-34.5 -73.334 -34.5 -128.001zM632 726.998h17l-426 -747h-17z" />
    </font>
</defs>
</svg>
